{
.appVersion = "1312";
DisplayStrings = (

glyphs = (
{
glyphname = h;
lastChange = "2020-03-20 22:43:17 +0000";
layers = (
{
layerId = "5737A387-D58B-44AF-B5D8-46C6A64E18DE";
paths = (
{
closed = 1;
nodes = (
"457 45 OFFCURVE",
"435 52 OFFCURVE",
"402 54 CURVE",
"402 265 LINE SMOOTH",
"402 383 OFFCURVE",
"363 415 OFFCURVE",
"301 415 CURVE SMOOTH",
"218 415 OFFCURVE",
"168 373 OFFCURVE",
"145 289 CURVE",
"145 525 LINE",
"153 581 LINE",
"150 588 OFFCURVE",
"146 592 OFFCURVE",
"139 595 CURVE",
"97 595 OFFCURVE",
"61 583 OFFCURVE",
"18 563 CURVE",
"14 551 OFFCURVE",
"14 539 OFFCURVE",
"18 527 CURVE",
"40 525 OFFCURVE",
"59 523 OFFCURVE",
"79 525 CURVE",
"79 52 LINE",
"18 20 LINE",
"18 0 LINE",
"207 0 LINE",
"214 9 OFFCURVE",
"218 19 OFFCURVE",
"217 28 CURVE",
"200 45 OFFCURVE",
"178 52 OFFCURVE",
"145 54 CURVE",
"145 146 LINE SMOOTH",
"145 323 OFFCURVE",
"175 352 OFFCURVE",
"279 352 CURVE SMOOTH",
"314 352 OFFCURVE",
"336 327 OFFCURVE",
"336 277 CURVE SMOOTH",
"336 52 LINE",
"275 20 LINE",
"275 0 LINE",
"464 0 LINE",
"471 9 OFFCURVE",
"475 19 OFFCURVE",
"474 28 CURVE"
);
}
);
width = 509;
}
);
rightMetricsKey = "=n";
unicode = 0068;
},
{
export = 0;
glyphname = n;
lastChange = "2020-03-20 22:43:17 +0000";
layers = (
{
guideLines = (
{
position = "{177, 50}";
}
);
layerId = "5737A387-D58B-44AF-B5D8-46C6A64E18DE";
paths = (
{
closed = 1;
nodes = (
"457 45 OFFCURVE",
"437 52 OFFCURVE",
"404 54 CURVE SMOOTH",
"402 54 LINE",
"402 265 LINE SMOOTH",
"402 383 OFFCURVE",
"363 415 OFFCURVE",
"301 415 CURVE SMOOTH",
"226 415 OFFCURVE",
"178 373 OFFCURVE",
"155 290 CURVE",
"155 345 LINE",
"163 401 LINE",
"160 408 OFFCURVE",
"156 412 OFFCURVE",
"149 415 CURVE",
"107 415 OFFCURVE",
"71 403 OFFCURVE",
"28 383 CURVE",
"24 371 OFFCURVE",
"24 359 OFFCURVE",
"28 347 CURVE",
"50 345 OFFCURVE",
"69 343 OFFCURVE",
"89 345 CURVE",
"89 52 LINE",
"28 20 LINE",
"28 0 LINE",
"217 0 LINE",
"224 9 OFFCURVE",
"228 19 OFFCURVE",
"227 28 CURVE",
"210 45 OFFCURVE",
"190 52 OFFCURVE",
"157 54 CURVE SMOOTH",
"155 54 LINE",
"155 146 LINE SMOOTH",
"155 323 OFFCURVE",
"185 352 OFFCURVE",
"279 352 CURVE SMOOTH",
"314 352 OFFCURVE",
"336 327 OFFCURVE",
"336 277 CURVE SMOOTH",
"336 52 LINE",
"275 20 LINE",
"275 0 LINE",
"464 0 LINE",
"471 9 OFFCURVE",
"475 19 OFFCURVE",
"474 28 CURVE"
);
}
);
width = 509;
}
);
unicode = 006E;
},
{
glyphname = "hamza-ar";
lastChange = "2020-03-30 10:41:27 +0000";
layers = (
{
backgroundImage = {
crop = "{{0, 0}, {173, 213}}";
imagePath = "../Desktop/Bildschirmfoto 2020-03-30 um 11.25.56.png";
locked = "1";
transform = "{2.38806, 0, 0, 2.38806, -36, -107}";
};
layerId = "5737A387-D58B-44AF-B5D8-46C6A64E18DE";
paths = (
{
closed = 1;
nodes = (
"262 97 OFFCURVE",
"195 97 OFFCURVE",
"139 72 CURVE SMOOTH",
"95 53 OFFCURVE",
"56 14 OFFCURVE",
"30 -36 CURVE",
"34 -44 OFFCURVE",
"39 -47 OFFCURVE",
"49 -48 CURVE",
"136 7 OFFCURVE",
"182 24 OFFCURVE",
"294 34 CURVE",
"321 60 OFFCURVE",
"330 78 OFFCURVE",
"326 122 CURVE"
);
},
{
closed = 1;
nodes = (
"286 167 OFFCURVE",
"295 171 OFFCURVE",
"298 182 CURVE",
"286 243 OFFCURVE",
"247 279 OFFCURVE",
"190 279 CURVE SMOOTH",
"125 279 OFFCURVE",
"78 209 OFFCURVE",
"78 149 CURVE SMOOTH",
"78 86 OFFCURVE",
"140 20 OFFCURVE",
"243 29 CURVE",
"326 122 LINE",
"223 84 OFFCURVE",
"114 84 OFFCURVE",
"114 147 CURVE SMOOTH",
"114 179 OFFCURVE",
"152 204 OFFCURVE",
"193 204 CURVE SMOOTH",
"230 204 OFFCURVE",
"260 193 OFFCURVE",
"269 168 CURVE"
);
}
);
width = 357;
}
);
unicode = 0621;
},
{
color = 5;
glyphname = "alef-ar";
lastChange = "2020-03-30 13:49:41 +0000";
layers = (
{
background = {
paths = (
{
closed = 1;
nodes = (
"436 81 OFFCURVE",
"414 88 OFFCURVE",
"381 90 CURVE",
"381 301 LINE SMOOTH",
"381 419 OFFCURVE",
"342 451 OFFCURVE",
"280 451 CURVE SMOOTH",
"197 451 OFFCURVE",
"147 409 OFFCURVE",
"124 325 CURVE",
"124 561 LINE",
"132 617 LINE",
"129 624 OFFCURVE",
"125 628 OFFCURVE",
"118 631 CURVE",
"76 631 OFFCURVE",
"40 619 OFFCURVE",
"-3 599 CURVE",
"-7 587 OFFCURVE",
"-7 575 OFFCURVE",
"-3 563 CURVE",
"19 561 OFFCURVE",
"38 559 OFFCURVE",
"58 561 CURVE",
"58 88 LINE",
"-3 56 LINE",
"-3 36 LINE",
"186 36 LINE",
"193 45 OFFCURVE",
"197 55 OFFCURVE",
"196 64 CURVE",
"179 81 OFFCURVE",
"157 88 OFFCURVE",
"124 90 CURVE",
"124 182 LINE SMOOTH",
"124 359 OFFCURVE",
"154 388 OFFCURVE",
"258 388 CURVE SMOOTH",
"293 388 OFFCURVE",
"315 363 OFFCURVE",
"315 313 CURVE SMOOTH",
"315 88 LINE",
"254 56 LINE",
"254 36 LINE",
"443 36 LINE",
"450 45 OFFCURVE",
"454 55 OFFCURVE",
"453 64 CURVE"
);
}
);
};
layerId = "5737A387-D58B-44AF-B5D8-46C6A64E18DE";
paths = (
{
closed = 1;
nodes = (
"129 613 OFFCURVE",
"125 617 OFFCURVE",
"118 620 CURVE",
"95 620 OFFCURVE",
"75 595 OFFCURVE",
"60 569 CURVE",
"71 388 OFFCURVE",
"72 231 OFFCURVE",
"67 -10 CURVE",
"84 -10 OFFCURVE",
"111 12 OFFCURVE",
"126 30 CURVE",
"123 226 OFFCURVE",
"125 383 OFFCURVE",
"132 606 CURVE"
);
}
);
width = 192;
}
);
unicode = 0627;
},
{
color = 3;
glyphname = "alef-ar.fina";
lastChange = "2020-03-30 13:49:43 +0000";
layers = (
{
background = {
paths = (
{
closed = 1;
nodes = (
"113 122 LINE",
"123 501 LINE",
"60 490 LINE",
"60 175 LINE SMOOTH",
"60 90 OFFCURVE",
"67 52 OFFCURVE",
"144 52 CURVE SMOOTH",
"186 52 LINE",
"186 122 LINE"
);
}
);
};
hints = (
{
origin = "{0, 17}";
target = "{0, 18}";
type = Cap;
name = _cap.joint;
}
);
layerId = "5737A387-D58B-44AF-B5D8-46C6A64E18DE";
paths = (
{
closed = 1;
nodes = (
"159 68 OFFCURVE",
"142 72 OFFCURVE",
"125 80 CURVE",
"123 254 OFFCURVE",
"126 402 OFFCURVE",
"132 606 CURVE",
"129 613 OFFCURVE",
"125 617 OFFCURVE",
"118 620 CURVE",
"95 620 OFFCURVE",
"75 595 OFFCURVE",
"60 569 CURVE",
"71 388 OFFCURVE",
"71 231 OFFCURVE",
"67 100 CURVE SMOOTH",
"65 28 OFFCURVE",
"120 -10 OFFCURVE",
"197 -10 CURVE",
"197 68 LINE"
);
}
);
width = 197;
},
{
associatedMasterId = "5737A387-D58B-44AF-B5D8-46C6A64E18DE";
layerId = "B564F41A-4480-4EA3-B80F-71B18AAD8676";
name = "Jan 19 20, 18:17";
paths = (
{
closed = 1;
nodes = (
"118 123 OFFCURVE",
"102 124 OFFCURVE",
"83 130 CURVE",
"81 144 OFFCURVE",
"81 148 OFFCURVE",
"81 162 CURVE SMOOTH",
"83 238 OFFCURVE",
"91 426 OFFCURVE",
"88 501 CURVE",
"77 502 LINE",
"30 477 LINE",
"31 391 OFFCURVE",
"35 268 OFFCURVE",
"39 175 CURVE SMOOTH",
"40 145 OFFCURVE",
"42 108 OFFCURVE",
"51 74 CURVE",
"65 58 OFFCURVE",
"84 52 OFFCURVE",
"114 52 CURVE SMOOTH",
"156 52 LINE",
"156 123 LINE",
"128 123 LINE SMOOTH"
);
}
);
width = 146;
}
);
leftMetricsKey = "=alef-ar";
unicode = FE8E;
},
{
color = 5;
glyphname = "teh-ar";
lastChange = "2020-03-20 22:43:47 +0000";
layers = (
{
guideLines = (
{
position = "{578, 273}";
}
);
layerId = "5737A387-D58B-44AF-B5D8-46C6A64E18DE";
paths = (
{
closed = 1;
nodes = (
"237 350 OFFCURVE",
"247 342 OFFCURVE",
"271 327 CURVE",
"328 374 LINE",
"315 398 OFFCURVE",
"301 413 OFFCURVE",
"281 423 CURVE",
"224 376 LINE"
);
},
{
closed = 1;
nodes = (
"357 350 OFFCURVE",
"367 342 OFFCURVE",
"391 327 CURVE",
"448 374 LINE",
"435 398 OFFCURVE",
"421 413 OFFCURVE",
"401 423 CURVE",
"344 376 LINE"
);
},
{
closed = 1;
nodes = (
"546 288 OFFCURVE",
"518 278 OFFCURVE",
"496 252 CURVE",
"548 188 OFFCURVE",
"562 142 OFFCURVE",
"562 114 CURVE SMOOTH",
"562 75 OFFCURVE",
"546 68 OFFCURVE",
"410 68 CURVE SMOOTH",
"140 68 OFFCURVE",
"72 78 OFFCURVE",
"72 168 CURVE SMOOTH",
"72 205 OFFCURVE",
"82 236 OFFCURVE",
"94 260 CURVE",
"87 265 OFFCURVE",
"80 265 OFFCURVE",
"73 260 CURVE",
"43 205 OFFCURVE",
"30 174 OFFCURVE",
"30 144 CURVE SMOOTH",
"30 46 OFFCURVE",
"128 -10 OFFCURVE",
"312 -10 CURVE SMOOTH",
"536 -10 OFFCURVE",
"607 64 OFFCURVE",
"607 150 CURVE SMOOTH",
"607 176 OFFCURVE",
"598 216 OFFCURVE",
"576 282 CURVE"
);
}
);
width = 637;
}
);
unicode = 062A;
},
{
color = 3;
glyphname = "teh-ar.fina";
lastChange = "2020-03-23 10:38:44 +0000";
layers = (
{
guideLines = (
{
position = "{563, 122}";
},
{
position = "{557, 52}";
}
);
hints = (
{
origin = "{3, 6}";
target = "{3, 7}";
type = Cap;
name = _cap.joint;
}
);
layerId = "5737A387-D58B-44AF-B5D8-46C6A64E18DE";
paths = (
{
closed = 1;
nodes = (
"227 350 OFFCURVE",
"237 342 OFFCURVE",
"261 327 CURVE",
"318 374 LINE",
"305 398 OFFCURVE",
"291 413 OFFCURVE",
"271 423 CURVE",
"214 376 LINE"
);
},
{
closed = 1;
nodes = (
"347 350 OFFCURVE",
"357 342 OFFCURVE",
"381 327 CURVE",
"438 374 LINE",
"425 398 OFFCURVE",
"411 413 OFFCURVE",
"391 423 CURVE",
"334 376 LINE"
);
},
{
closed = 1;
nodes = (
"548 258 OFFCURVE",
"523 248 OFFCURVE",
"501 222 CURVE",
"519 177 OFFCURVE",
"530 136 OFFCURVE",
"522 114 CURVE SMOOTH",
"508 75 OFFCURVE",
"502 68 OFFCURVE",
"390 68 CURVE SMOOTH",
"140 68 OFFCURVE",
"72 78 OFFCURVE",
"72 168 CURVE SMOOTH",
"72 205 OFFCURVE",
"83 239 OFFCURVE",
"95 263 CURVE",
"88 268 OFFCURVE",
"81 268 OFFCURVE",
"74 263 CURVE",
"44 208 OFFCURVE",
"30 174 OFFCURVE",
"30 144 CURVE SMOOTH",
"30 46 OFFCURVE",
"128 -10 OFFCURVE",
"292 -10 CURVE SMOOTH",
"496 -10 OFFCURVE",
"555 64 OFFCURVE",
"567 130 CURVE SMOOTH",
"575 175 OFFCURVE",
"578 196 OFFCURVE",
"578 252 CURVE"
);
},
{
closed = 1;
nodes = (
"602 68 OFFCURVE",
"571 74 OFFCURVE",
"541 100 CURVE",
"541 83 LINE",
"559 12 OFFCURVE",
"582 -10 OFFCURVE",
"622 -10 CURVE",
"622 68 LINE"
);
}
);
width = 622;
}
);
unicode = FE96;
},
{
color = 3;
glyphname = "teh-ar.medi";
lastChange = "2020-03-25 11:52:18 +0000";
layers = (
{
background = {
paths = (
{
closed = 1;
nodes = (
"125 167 OFFCURVE",
"131 131 OFFCURVE",
"124 114 CURVE SMOOTH",
"109 77 OFFCURVE",
"89 59 OFFCURVE",
"59 59 CURVE SMOOTH",
"18 59 OFFCURVE",
"-10 102 OFFCURVE",
"-29 242 CURVE",
"-46 92 LINE",
"-10 9 OFFCURVE",
"36 -10 OFFCURVE",
"66 -10 CURVE SMOOTH",
"113 -10 OFFCURVE",
"153 56 OFFCURVE",
"169 130 CURVE SMOOTH",
"179 175 OFFCURVE",
"182 186 OFFCURVE",
"194 242 CURVE",
"164 248 OFFCURVE",
"139 238 OFFCURVE",
"117 212 CURVE"
);
}
);
};
hints = (
{
origin = "{2, 15}";
target = "{2, 0}";
type = Cap;
name = _cap.joint;
},
{
origin = "{3, 7}";
target = "{3, 0}";
type = Cap;
name = _cap.joint;
}
);
layerId = "5737A387-D58B-44AF-B5D8-46C6A64E18DE";
paths = (
{
closed = 1;
nodes = (
"49 370 OFFCURVE",
"59 362 OFFCURVE",
"83 347 CURVE",
"140 394 LINE",
"127 418 OFFCURVE",
"113 433 OFFCURVE",
"93 443 CURVE",
"36 396 LINE"
);
},
{
closed = 1;
nodes = (
"169 370 OFFCURVE",
"179 362 OFFCURVE",
"203 347 CURVE",
"260 394 LINE",
"247 418 OFFCURVE",
"233 433 OFFCURVE",
"213 443 CURVE",
"156 396 LINE"
);
},
{
closed = 1;
nodes = (
"0 -10 LINE",
"121 -10 OFFCURVE",
"154 78 OFFCURVE",
"169 130 CURVE SMOOTH",
"182 175 OFFCURVE",
"184 186 OFFCURVE",
"194 242 CURVE",
"164 248 OFFCURVE",
"139 238 OFFCURVE",
"117 212 CURVE",
"125 167 OFFCURVE",
"131 130 OFFCURVE",
"124 114 CURVE SMOOTH",
"108 77 OFFCURVE",
"105 68 OFFCURVE",
"0 68 CURVE"
);
},
{
closed = 1;
nodes = (
"274 68 LINE",
"199 68 OFFCURVE",
"171 76 OFFCURVE",
"143 100 CURVE",
"143 83 LINE",
"161 12 OFFCURVE",
"184 -10 OFFCURVE",
"274 -10 CURVE"
);
}
);
width = 274;
}
);
unicode = FE98;
},
{
color = 3;
glyphname = "teh-ar.init";
lastChange = "2020-03-23 10:38:44 +0000";
layers = (
{
layerId = "5737A387-D58B-44AF-B5D8-46C6A64E18DE";
paths = (
{
closed = 1;
nodes = (
"17 380 OFFCURVE",
"27 372 OFFCURVE",
"51 357 CURVE",
"108 404 LINE",
"95 428 OFFCURVE",
"81 443 OFFCURVE",
"61 453 CURVE",
"4 406 LINE"
);
},
{
closed = 1;
nodes = (
"137 380 OFFCURVE",
"147 372 OFFCURVE",
"171 357 CURVE",
"228 404 LINE",
"215 428 OFFCURVE",
"201 443 OFFCURVE",
"181 453 CURVE",
"124 406 LINE"
);
},
{
closed = 1;
nodes = (
"179 175 OFFCURVE",
"178 196 OFFCURVE",
"170 272 CURVE",
"140 278 OFFCURVE",
"107 268 OFFCURVE",
"85 242 CURVE",
"123 177 OFFCURVE",
"137 136 OFFCURVE",
"137 114 CURVE SMOOTH",
"137 73 OFFCURVE",
"118 68 OFFCURVE",
"0 68 CURVE SMOOTH",
"-26 68 OFFCURVE",
"-46 50 OFFCURVE",
"-46 29 CURVE SMOOTH",
"-46 8 OFFCURVE",
"-26 -10 OFFCURVE",
"0 -10 CURVE SMOOTH",
"131 -10 OFFCURVE",
"179 67 OFFCURVE",
"179 130 CURVE SMOOTH"
);
}
);
width = 260;
}
);
unicode = FE97;
},
{
color = 5;
glyphname = "hah-ar";
lastChange = "2020-04-03 15:52:00 +0000";
layers = (
{
background = {
paths = (
{
closed = 1;
nodes = (
"371 -94 LINE",
"100 -94 LINE",
"100 90 LINE",
"180 126 OFFCURVE",
"293 135 OFFCURVE",
"389 149 CURVE",
"390 191 LINE",
"316 194 OFFCURVE",
"283 192 OFFCURVE",
"206 177 CURVE SMOOTH",
"103 157 OFFCURVE",
"43 121 OFFCURVE",
"43 21 CURVE SMOOTH",
"43 -148 OFFCURVE",
"123 -150 OFFCURVE",
"341 -150 CURVE"
);
},
{
closed = 1;
nodes = (
"389 151 LINE",
"399 201 LINE",
"323 210 LINE",
"216 258 OFFCURVE",
"118 313 OFFCURVE",
"72 269 CURVE SMOOTH",
"40 239 LINE",
"83 203 LINE",
"117 235 LINE",
"352 151 LINE"
);
}
);
};
layerId = "5737A387-D58B-44AF-B5D8-46C6A64E18DE";
paths = (
{
closed = 1;
nodes = (
"370 207 LINE",
"275 163 OFFCURVE",
"22 134 OFFCURVE",
"22 -30 CURVE SMOOTH",
"22 -149 OFFCURVE",
"181 -196 OFFCURVE",
"317 -196 CURVE",
"355 -183 OFFCURVE",
"365 -164 OFFCURVE",
"375 -137 CURVE",
"214 -137 OFFCURVE",
"60 -112 OFFCURVE",
"59 -20 CURVE SMOOTH",
"58 53 OFFCURVE",
"250 103 OFFCURVE",
"372 147 CURVE",
"382 162 OFFCURVE",
"386 188 OFFCURVE",
"382 207 CURVE"
);
},
{
closed = 1;
nodes = (
"382 162 OFFCURVE",
"386 198 OFFCURVE",
"382 217 CURVE",
"340 217 OFFCURVE",
"311 217 OFFCURVE",
"258 230 CURVE SMOOTH",
"201 244 OFFCURVE",
"130 282 OFFCURVE",
"99 282 CURVE SMOOTH",
"65 282 OFFCURVE",
"32 249 OFFCURVE",
"23 225 CURVE",
"32 206 OFFCURVE",
"52 198 OFFCURVE",
"71 193 CURVE",
"85 200 OFFCURVE",
"97 210 OFFCURVE",
"105 225 CURVE",
"176 207 OFFCURVE",
"260 165 OFFCURVE",
"335 147 CURVE",
"372 147 LINE"
);
}
);
width = 439;
}
);
unicode = 062D;
},
{
color = 3;
glyphname = "hah-ar.fina";
lastChange = "2020-04-03 15:52:40 +0000";
layers = (
{
background = {
paths = (
{
closed = 1;
nodes = (
"370 207 LINE",
"275 163 OFFCURVE",
"22 134 OFFCURVE",
"22 -30 CURVE SMOOTH",
"22 -149 OFFCURVE",
"181 -196 OFFCURVE",
"317 -196 CURVE",
"355 -183 OFFCURVE",
"365 -164 OFFCURVE",
"375 -137 CURVE",
"214 -137 OFFCURVE",
"60 -112 OFFCURVE",
"59 -20 CURVE SMOOTH",
"58 53 OFFCURVE",
"250 103 OFFCURVE",
"372 147 CURVE",
"382 162 OFFCURVE",
"386 188 OFFCURVE",
"382 207 CURVE"
);
},
{
closed = 1;
nodes = (
"382 162 OFFCURVE",
"386 198 OFFCURVE",
"382 217 CURVE",
"340 217 OFFCURVE",
"311 217 OFFCURVE",
"258 230 CURVE SMOOTH",
"201 244 OFFCURVE",
"130 282 OFFCURVE",
"99 282 CURVE SMOOTH",
"65 282 OFFCURVE",
"32 249 OFFCURVE",
"23 225 CURVE",
"32 206 OFFCURVE",
"52 198 OFFCURVE",
"71 193 CURVE",
"85 200 OFFCURVE",
"97 210 OFFCURVE",
"105 225 CURVE",
"176 207 OFFCURVE",
"260 165 OFFCURVE",
"335 147 CURVE",
"372 147 LINE"
);
}
);
};
hints = (
{
origin = "{0, 6}";
target = "{0, 7}";
type = Cap;
name = _cap.joint;
}
);
layerId = "5737A387-D58B-44AF-B5D8-46C6A64E18DE";
paths = (
{
closed = 1;
nodes = (
"384 68 OFFCURVE",
"363 74 OFFCURVE",
"349 150 CURVE",
"330 143 LINE",
"348 12 OFFCURVE",
"354 -10 OFFCURVE",
"414 -10 CURVE",
"414 68 LINE"
);
},
{
closed = 1;
nodes = (
"370 207 LINE",
"275 163 OFFCURVE",
"22 134 OFFCURVE",
"22 -30 CURVE SMOOTH",
"22 -149 OFFCURVE",
"181 -196 OFFCURVE",
"317 -196 CURVE",
"347 -186 OFFCURVE",
"367 -167 OFFCURVE",
"375 -137 CURVE",
"214 -137 OFFCURVE",
"60 -112 OFFCURVE",
"59 -20 CURVE SMOOTH",
"58 53 OFFCURVE",
"250 103 OFFCURVE",
"372 147 CURVE",
"382 162 OFFCURVE",
"386 188 OFFCURVE",
"382 207 CURVE"
);
},
{
closed = 1;
nodes = (
"382 162 OFFCURVE",
"386 198 OFFCURVE",
"382 217 CURVE",
"340 217 OFFCURVE",
"311 217 OFFCURVE",
"258 230 CURVE SMOOTH",
"201 244 OFFCURVE",
"130 282 OFFCURVE",
"99 282 CURVE SMOOTH",
"65 282 OFFCURVE",
"32 249 OFFCURVE",
"23 225 CURVE",
"32 206 OFFCURVE",
"52 198 OFFCURVE",
"71 193 CURVE",
"85 200 OFFCURVE",
"97 210 OFFCURVE",
"105 225 CURVE",
"176 207 OFFCURVE",
"260 165 OFFCURVE",
"335 147 CURVE",
"372 147 LINE"
);
}
);
width = 414;
}
);
rightMetricsKey = "=-46";
unicode = FEA2;
},
{
color = 3;
glyphname = "hah-ar.medi";
lastChange = "2020-03-24 14:41:47 +0000";
layers = (
{
background = {
paths = (
{
closed = 1;
nodes = (
"57 52 LINE SMOOTH",
"179 52 OFFCURVE",
"260 137 OFFCURVE",
"372 151 CURVE",
"382 201 LINE",
"370 201 LINE",
"101 122 LINE",
"-10 122 LINE",
"-10 52 LINE"
);
},
{
closed = 1;
nodes = (
"372 151 LINE",
"382 201 LINE",
"306 210 LINE",
"199 258 OFFCURVE",
"101 313 OFFCURVE",
"55 269 CURVE SMOOTH",
"23 239 LINE",
"66 203 LINE",
"100 235 LINE",
"335 151 LINE"
);
},
{
closed = 1;
nodes = (
"424 52 LINE",
"424 122 LINE",
"372 122 LINE",
"343 148 LINE",
"318 143 LINE",
"329 102 OFFCURVE",
"364 52 OFFCURVE",
"402 52 CURVE SMOOTH"
);
}
);
};
hints = (
{
origin = "{2, 6}";
target = "{2, 7}";
type = Cap;
name = _cap.joint;
},
{
origin = "{0, 4}";
target = "{0, 5}";
type = Cap;
name = _cap.joint;
}
);
layerId = "5737A387-D58B-44AF-B5D8-46C6A64E18DE";
paths = (
{
closed = 1;
nodes = (
"370 187 LINE",
"275 133 OFFCURVE",
"176 68 OFFCURVE",
"10 68 CURVE SMOOTH",
"0 68 LINE",
"0 -10 LINE",
"7 -10 LINE SMOOTH",
"179 -10 OFFCURVE",
"260 103 OFFCURVE",
"372 127 CURVE",
"382 142 OFFCURVE",
"386 168 OFFCURVE",
"382 187 CURVE"
);
},
{
closed = 1;
nodes = (
"382 142 OFFCURVE",
"386 178 OFFCURVE",
"382 197 CURVE",
"340 197 OFFCURVE",
"322 198 OFFCURVE",
"282 218 CURVE SMOOTH",
"205 257 OFFCURVE",
"150 282 OFFCURVE",
"89 282 CURVE SMOOTH",
"55 282 OFFCURVE",
"22 249 OFFCURVE",
"13 225 CURVE",
"22 206 OFFCURVE",
"42 198 OFFCURVE",
"61 193 CURVE",
"75 200 OFFCURVE",
"87 210 OFFCURVE",
"95 225 CURVE",
"176 207 OFFCURVE",
"260 165 OFFCURVE",
"335 127 CURVE",
"372 127 LINE"
);
},
{
closed = 1;
nodes = (
"394 68 OFFCURVE",
"363 74 OFFCURVE",
"349 130 CURVE",
"333 123 LINE",
"351 12 OFFCURVE",
"374 -10 OFFCURVE",
"414 -10 CURVE",
"414 68 LINE"
);
}
);
width = 414;
}
);
unicode = FEA4;
},
{
color = 5;
glyphname = "hah-ar.init";
lastChange = "2020-03-30 10:58:36 +0000";
layers = (
{
guideLines = (
{
angle = 180;
position = "{5, 68}";
},
{
position = "{4, -10}";
}
);
hints = (
{
origin = "{0, 11}";
target = "{0, 12}";
type = Cap;
name = _cap.joint;
}
);
layerId = "5737A387-D58B-44AF-B5D8-46C6A64E18DE";
paths = (
{
closed = 1;
nodes = (
"7 -10 LINE SMOOTH",
"179 -10 OFFCURVE",
"260 103 OFFCURVE",
"372 127 CURVE",
"382 142 OFFCURVE",
"386 168 OFFCURVE",
"382 187 CURVE",
"370 187 LINE",
"275 133 OFFCURVE",
"176 68 OFFCURVE",
"10 68 CURVE SMOOTH",
"0 68 LINE",
"0 -10 LINE"
);
},
{
closed = 1;
nodes = (
"372 127 LINE",
"382 142 OFFCURVE",
"386 178 OFFCURVE",
"382 197 CURVE",
"340 197 OFFCURVE",
"322 198 OFFCURVE",
"282 218 CURVE SMOOTH",
"205 257 OFFCURVE",
"150 282 OFFCURVE",
"89 282 CURVE SMOOTH",
"55 282 OFFCURVE",
"22 249 OFFCURVE",
"13 225 CURVE",
"22 206 OFFCURVE",
"42 198 OFFCURVE",
"61 193 CURVE",
"75 200 OFFCURVE",
"87 210 OFFCURVE",
"95 225 CURVE",
"176 207 OFFCURVE",
"260 165 OFFCURVE",
"335 127 CURVE"
);
}
);
width = 436;
}
);
unicode = FEA3;
},
{
glyphname = "dal-ar";
lastChange = "2020-04-03 15:53:40 +0000";
layers = (
{
guideLines = (
{
position = "{-91, -10}";
},
{
position = "{-91, 68}";
}
);
layerId = "5737A387-D58B-44AF-B5D8-46C6A64E18DE";
paths = (
{
closed = 1;
nodes = (
"185 318 OFFCURVE",
"175 304 OFFCURVE",
"172 272 CURVE",
"269 203 OFFCURVE",
"293 141 OFFCURVE",
"293 111 CURVE SMOOTH",
"293 83 OFFCURVE",
"262 68 OFFCURVE",
"189 68 CURVE SMOOTH",
"120 68 OFFCURVE",
"77 68 OFFCURVE",
"77 102 CURVE SMOOTH",
"77 115 OFFCURVE",
"80 146 OFFCURVE",
"86 160 CURVE",
"79 165 OFFCURVE",
"68 165 OFFCURVE",
"61 160 CURVE",
"39 129 OFFCURVE",
"35 98 OFFCURVE",
"35 74 CURVE SMOOTH",
"35 16 OFFCURVE",
"118 -10 OFFCURVE",
"181 -10 CURVE SMOOTH",
"265 -10 OFFCURVE",
"336 44 OFFCURVE",
"336 120 CURVE SMOOTH",
"336 179 OFFCURVE",
"323 203 OFFCURVE",
"229 331 CURVE",
"222 335 OFFCURVE",
"216 335 OFFCURVE",
"209 334 CURVE"
);
}
);
width = 366;
}
);
unicode = 062F;
},
{
glyphname = "dal-ar.fina";
lastChange = "2020-04-03 15:59:19 +0000";
layers = (
{
hints = (
{
origin = "{0, 6}";
type = Cap;
name = _cap.joint;
}
);
layerId = "5737A387-D58B-44AF-B5D8-46C6A64E18DE";
paths = (
{
closed = 1;
nodes = (
"392 68 OFFCURVE",
"355 85 OFFCURVE",
"319 200 CURVE",
"308 128 LINE",
"308 26 OFFCURVE",
"382 -10 OFFCURVE",
"422 -10 CURVE",
"422 68 LINE"
);
},
{
closed = 1;
nodes = (
"240 325 OFFCURVE",
"225 311 OFFCURVE",
"222 280 CURVE",
"258 203 OFFCURVE",
"288 138 OFFCURVE",
"288 111 CURVE SMOOTH",
"288 83 OFFCURVE",
"257 68 OFFCURVE",
"184 68 CURVE SMOOTH",
"115 68 OFFCURVE",
"72 68 OFFCURVE",
"72 102 CURVE SMOOTH",
"72 120 OFFCURVE",
"76 138 OFFCURVE",
"85 160 CURVE",
"77 165 OFFCURVE",
"71 165 OFFCURVE",
"63 160 CURVE",
"38 129 OFFCURVE",
"30 94 OFFCURVE",
"30 74 CURVE SMOOTH",
"30 16 OFFCURVE",
"103 -10 OFFCURVE",
"166 -10 CURVE SMOOTH",
"270 -10 OFFCURVE",
"331 34 OFFCURVE",
"331 120 CURVE SMOOTH",
"331 179 OFFCURVE",
"318 203 OFFCURVE",
"274 331 CURVE",
"269 334 OFFCURVE",
"265 335 OFFCURVE",
"259 334 CURVE"
);
}
);
width = 422;
}
);
rightMetricsKey = "=-46";
unicode = FEAA;
},
{
glyphname = "seen-ar";
lastChange = "2020-03-25 14:20:05 +0000";
layers = (
{
layerId = "5737A387-D58B-44AF-B5D8-46C6A64E18DE";
paths = (
{
closed = 1;
nodes = (
"361 138 OFFCURVE",
"372 52 OFFCURVE",
"372 24 CURVE SMOOTH",
"372 -15 OFFCURVE",
"356 -22 OFFCURVE",
"250 -22 CURVE SMOOTH",
"140 -22 OFFCURVE",
"72 -12 OFFCURVE",
"72 78 CURVE SMOOTH",
"72 115 OFFCURVE",
"82 146 OFFCURVE",
"94 170 CURVE",
"87 175 OFFCURVE",
"80 175 OFFCURVE",
"73 170 CURVE",
"43 115 OFFCURVE",
"30 84 OFFCURVE",
"30 54 CURVE SMOOTH",
"30 -44 OFFCURVE",
"128 -96 OFFCURVE",
"222 -96 CURVE SMOOTH",
"346 -96 OFFCURVE",
"417 -26 OFFCURVE",
"417 60 CURVE SMOOTH",
"417 86 OFFCURVE",
"411 166 OFFCURVE",
"401 242 CURVE",
"359 238 OFFCURVE",
"331 228 OFFCURVE",
"321 212 CURVE"
);
},
{
closed = 1;
nodes = (
"545 147 OFFCURVE",
"546 131 OFFCURVE",
"544 114 CURVE SMOOTH",
"539 75 OFFCURVE",
"509 59 OFFCURVE",
"479 59 CURVE SMOOTH",
"438 59 OFFCURVE",
"420 102 OFFCURVE",
"401 242 CURVE",
"384 92 LINE",
"420 9 OFFCURVE",
"456 -10 OFFCURVE",
"486 -10 CURVE SMOOTH",
"533 -10 OFFCURVE",
"573 56 OFFCURVE",
"589 130 CURVE SMOOTH",
"599 155 OFFCURVE",
"602 166 OFFCURVE",
"614 192 CURVE",
"593 223 OFFCURVE",
"566 231 OFFCURVE",
"537 221 CURVE"
);
},
{
closed = 1;
nodes = (
"725 157 OFFCURVE",
"728 131 OFFCURVE",
"724 114 CURVE SMOOTH",
"715 75 OFFCURVE",
"699 59 OFFCURVE",
"659 59 CURVE SMOOTH",
"618 59 OFFCURVE",
"579 102 OFFCURVE",
"614 192 CURVE",
"537 220 LINE",
"563 24 OFFCURVE",
"616 -10 OFFCURVE",
"656 -10 CURVE SMOOTH",
"713 -10 OFFCURVE",
"751 55 OFFCURVE",
"769 130 CURVE SMOOTH",
"775 155 OFFCURVE",
"779 169 OFFCURVE",
"784 191 CURVE",
"767 222 OFFCURVE",
"749 230 OFFCURVE",
"717 221 CURVE"
);
}
);
width = 809;
}
);
unicode = 0633;
},
{
glyphname = "seen-ar.fina";
lastChange = "2020-03-25 14:09:11 +0000";
layers = (
{
hints = (
{
origin = "{2, 7}";
type = Cap;
name = _cap.joint;
}
);
layerId = "5737A387-D58B-44AF-B5D8-46C6A64E18DE";
paths = (
{
closed = 1;
nodes = (
"545 147 OFFCURVE",
"546 131 OFFCURVE",
"544 114 CURVE SMOOTH",
"539 75 OFFCURVE",
"509 59 OFFCURVE",
"479 59 CURVE SMOOTH",
"438 59 OFFCURVE",
"420 102 OFFCURVE",
"401 242 CURVE",
"384 92 LINE",
"420 9 OFFCURVE",
"456 -10 OFFCURVE",
"486 -10 CURVE SMOOTH",
"533 -10 OFFCURVE",
"573 56 OFFCURVE",
"589 130 CURVE SMOOTH",
"599 155 OFFCURVE",
"602 166 OFFCURVE",
"614 192 CURVE",
"593 223 OFFCURVE",
"566 231 OFFCURVE",
"537 221 CURVE"
);
},
{
closed = 1;
nodes = (
"361 138 OFFCURVE",
"372 52 OFFCURVE",
"372 24 CURVE SMOOTH",
"372 -15 OFFCURVE",
"356 -22 OFFCURVE",
"250 -22 CURVE SMOOTH",
"140 -22 OFFCURVE",
"72 -12 OFFCURVE",
"72 78 CURVE SMOOTH",
"72 115 OFFCURVE",
"82 146 OFFCURVE",
"94 170 CURVE",
"87 175 OFFCURVE",
"80 175 OFFCURVE",
"73 170 CURVE",
"43 115 OFFCURVE",
"30 84 OFFCURVE",
"30 54 CURVE SMOOTH",
"30 -44 OFFCURVE",
"128 -96 OFFCURVE",
"222 -96 CURVE SMOOTH",
"346 -96 OFFCURVE",
"417 -26 OFFCURVE",
"417 60 CURVE SMOOTH",
"417 86 OFFCURVE",
"411 166 OFFCURVE",
"401 242 CURVE",
"359 238 OFFCURVE",
"331 228 OFFCURVE",
"321 212 CURVE"
);
},
{
closed = 1;
nodes = (
"874 68 LINE",
"799 68 OFFCURVE",
"771 76 OFFCURVE",
"743 100 CURVE",
"743 83 LINE",
"761 12 OFFCURVE",
"784 -10 OFFCURVE",
"874 -10 CURVE"
);
},
{
closed = 1;
nodes = (
"725 157 OFFCURVE",
"728 131 OFFCURVE",
"724 114 CURVE SMOOTH",
"715 75 OFFCURVE",
"699 59 OFFCURVE",
"659 59 CURVE SMOOTH",
"618 59 OFFCURVE",
"579 102 OFFCURVE",
"614 192 CURVE",
"537 220 LINE",
"563 24 OFFCURVE",
"616 -10 OFFCURVE",
"656 -10 CURVE SMOOTH",
"713 -10 OFFCURVE",
"751 55 OFFCURVE",
"769 130 CURVE SMOOTH",
"775 155 OFFCURVE",
"779 169 OFFCURVE",
"784 191 CURVE",
"767 222 OFFCURVE",
"749 230 OFFCURVE",
"717 221 CURVE"
);
}
);
width = 874;
}
);
rightMetricsKey = "=-46";
unicode = FEB2;
},
{
glyphname = "seen-ar.medi";
lastChange = "2020-04-03 15:40:19 +0000";
layers = (
{
background = {
hints = (
{
origin = "{0, 14}";
type = Cap;
name = _cap.joint;
}
);
paths = (
{
closed = 1;
nodes = (
"697 65 OFFCURVE",
"654 66 OFFCURVE",
"605 75 CURVE SMOOTH",
"540 87 OFFCURVE",
"522 130 OFFCURVE",
"485 240 CURVE",
"466 247 OFFCURVE",
"451 243 OFFCURVE",
"438 228 CURVE",
"457 160 OFFCURVE",
"467 120 OFFCURVE",
"467 100 CURVE SMOOTH",
"467 68 OFFCURVE",
"448 68 OFFCURVE",
"330 68 CURVE",
"330 -10 LINE",
"448 -10 OFFCURVE",
"535 34 OFFCURVE",
"503 108 CURVE",
"486 98 LINE",
"573 13 OFFCURVE",
"611 -8 OFFCURVE",
"766 -8 CURVE SMOOTH",
"921 -8 OFFCURVE",
"949 74 OFFCURVE",
"949 138 CURVE SMOOTH",
"949 226 OFFCURVE",
"900 283 OFFCURVE",
"831 283 CURVE SMOOTH",
"734 283 OFFCURVE",
"631 163 OFFCURVE",
"595 70 CURVE",
"624 65 LINE",
"672 128 OFFCURVE",
"733 200 OFFCURVE",
"824 200 CURVE SMOOTH",
"865 200 OFFCURVE",
"911 198 OFFCURVE",
"911 132 CURVE SMOOTH",
"911 78 OFFCURVE",
"886 65 OFFCURVE",
"781 65 CURVE SMOOTH"
);
}
);
};
guideLines = (
{
position = "{-82, 52}";
},
{
position = "{-80, 122}";
}
);
hints = (
{
origin = "{0, 7}";
target = "{0, 0}";
type = Cap;
name = _cap.joint;
},
{
origin = "{1, 38}";
target = "{1, 39}";
type = Cap;
name = _cap.joint;
}
);
layerId = "5737A387-D58B-44AF-B5D8-46C6A64E18DE";
paths = (
{
closed = 1;
nodes = (
"571 68 LINE",
"516 68 OFFCURVE",
"499 102 OFFCURVE",
"484 163 CURVE",
"446 114 LINE",
"462 39 OFFCURVE",
"531 -10 OFFCURVE",
"571 -10 CURVE"
);
},
{
closed = 1;
nodes = (
"485 165 OFFCURVE",
"479 180 OFFCURVE",
"467 220 CURVE",
"447 224 OFFCURVE",
"441 222 OFFCURVE",
"424 212 CURVE",
"442 148 OFFCURVE",
"446 131 OFFCURVE",
"446 114 CURVE SMOOTH",
"446 78 OFFCURVE",
"411 59 OFFCURVE",
"391 59 CURVE SMOOTH",
"348 59 OFFCURVE",
"333 130 OFFCURVE",
"307 224 CURVE",
"288 231 OFFCURVE",
"273 227 OFFCURVE",
"260 212 CURVE",
"273 170 OFFCURVE",
"285 133 OFFCURVE",
"285 102 CURVE SMOOTH",
"285 71 OFFCURVE",
"251 59 OFFCURVE",
"221 59 CURVE SMOOTH",
"183 59 OFFCURVE",
"167 88 OFFCURVE",
"153 136 CURVE SMOOTH",
"138 188 OFFCURVE",
"134 201 OFFCURVE",
"124 232 CURVE",
"103 235 OFFCURVE",
"91 231 OFFCURVE",
"80 216 CURVE",
"97 161 OFFCURVE",
"105 132 OFFCURVE",
"105 104 CURVE SMOOTH",
"105 69 OFFCURVE",
"77 68 OFFCURVE",
"0 68 CURVE",
"0 -10 LINE",
"77 -10 OFFCURVE",
"122 24 OFFCURVE",
"146 76 CURVE",
"114 98 LINE",
"160 11 OFFCURVE",
"187 -10 OFFCURVE",
"227 -10 CURVE SMOOTH",
"267 -10 OFFCURVE",
"314 30 OFFCURVE",
"333 89 CURVE",
"300 115 LINE",
"328 -2 OFFCURVE",
"357 -10 OFFCURVE",
"400 -10 CURVE SMOOTH",
"467 -10 OFFCURVE",
"504 55 OFFCURVE",
"491 130 CURVE SMOOTH"
);
}
);
width = 571;
},
{
associatedMasterId = "5737A387-D58B-44AF-B5D8-46C6A64E18DE";
guideLines = (
{
position = "{236, 47}";
},
{
position = "{238, 122}";
}
);
layerId = "8BD34E70-9EE6-44FB-902E-DAC9BD33047B";
name = "Dec 5 19, 12:16";
paths = (
{
closed = 1;
nodes = (
"304 122 LINE",
"189 122 LINE SMOOTH",
"163 122 OFFCURVE",
"156 137 OFFCURVE",
"170 162 CURVE SMOOTH",
"230 272 LINE",
"134 184 LINE SMOOTH",
"75 130 OFFCURVE",
"79 47 OFFCURVE",
"199 47 CURVE",
"298 47 LINE",
"325 85 LINE"
);
},
{
closed = 1;
nodes = (
"465 122 LINE",
"410 122 LINE SMOOTH",
"374 122 OFFCURVE",
"350 133 OFFCURVE",
"362 161 CURVE SMOOTH",
"402 256 LINE",
"330 218 LINE",
"285 109 LINE",
"313 62 OFFCURVE",
"332 47 OFFCURVE",
"396 47 CURVE SMOOTH",
"442 47 LINE",
"471 84 LINE"
);
},
{
closed = 1;
nodes = (
"465 62 OFFCURVE",
"479 47 OFFCURVE",
"552 47 CURVE SMOOTH",
"652 47 LINE",
"662 122 LINE",
"564 122 LINE SMOOTH",
"524 122 OFFCURVE",
"513 129 OFFCURVE",
"522 153 CURVE SMOOTH",
"576 305 LINE",
"502 259 LINE",
"443 94 LINE"
);
}
);
width = 602;
},
{
associatedMasterId = "5737A387-D58B-44AF-B5D8-46C6A64E18DE";
guideLines = (
{
position = "{196, 52}";
},
{
position = "{198, 122}";
}
);
layerId = "F536A226-C6A6-486F-A447-8F1E7A641181";
name = "Jan 19 20, 13:02";
paths = (
{
closed = 1;
nodes = (
"166 244 LINE",
"112 222 LINE",
"92 184 LINE SMOOTH",
"56 115 OFFCURVE",
"39 52 OFFCURVE",
"159 52 CURVE",
"258 52 LINE",
"285 85 LINE",
"264 122 LINE",
"167 122 LINE SMOOTH",
"141 122 OFFCURVE",
"128 122 OFFCURVE",
"145 162 CURVE SMOOTH",
"176 235 LINE"
);
},
{
closed = 1;
nodes = (
"343 266 LINE",
"290 238 LINE",
"245 109 LINE",
"273 67 OFFCURVE",
"292 52 OFFCURVE",
"356 52 CURVE SMOOTH",
"402 52 LINE",
"431 84 LINE",
"425 122 LINE",
"375 122 LINE SMOOTH",
"328 122 OFFCURVE",
"309 123 OFFCURVE",
"322 161 CURVE SMOOTH",
"354 258 LINE"
);
},
{
closed = 1;
nodes = (
"505 295 LINE",
"450 259 LINE",
"401 94 LINE",
"423 67 OFFCURVE",
"439 52 OFFCURVE",
"512 52 CURVE SMOOTH",
"544 52 LINE",
"544 123 LINE",
"524 123 LINE SMOOTH",
"483 123 OFFCURVE",
"470 128 OFFCURVE",
"477 153 CURVE SMOOTH",
"515 287 LINE"
);
},
{
closed = 1;
nodes = (
"-10 52 LINE",
"42 52 LINE",
"71 84 LINE",
"92 184 LINE",
"75 147 LINE SMOOTH",
"64 124 OFFCURVE",
"36 123 OFFCURVE",
"10 123 CURVE SMOOTH",
"-10 123 LINE"
);
}
);
width = 534;
}
);
leftMetricsKey = "=-46";
rightMetricsKey = "=-46";
unicode = FEB4;
},
{
glyphname = "seen-ar.init";
lastChange = "2020-03-20 22:43:17 +0000";
layers = (
{
background = {
paths = (
{
closed = 1;
nodes = (
"462 51 OFFCURVE",
"505 70 OFFCURVE",
"504 140 CURVE SMOOTH",
"503 194 OFFCURVE",
"503 247 OFFCURVE",
"504 301 CURVE",
"486 308 OFFCURVE",
"468 304 OFFCURVE",
"450 291 CURVE",
"461 191 OFFCURVE",
"469 135 OFFCURVE",
"460 121 CURVE SMOOTH",
"453 110 OFFCURVE",
"425 105 OFFCURVE",
"376 106 CURVE SMOOTH",
"327 108 OFFCURVE",
"310 113 OFFCURVE",
"306 126 CURVE SMOOTH",
"300 145 OFFCURVE",
"320 184 OFFCURVE",
"363 263 CURVE",
"341 268 OFFCURVE",
"321 264 OFFCURVE",
"303 253 CURVE",
"292 217 OFFCURVE",
"278 182 OFFCURVE",
"263 146 CURVE SMOOTH",
"236 82 OFFCURVE",
"295 54 OFFCURVE",
"406 52 CURVE SMOOTH"
);
},
{
closed = 1;
nodes = (
"3 52 LINE SMOOTH",
"36 52 OFFCURVE",
"59 74 OFFCURVE",
"78 104 CURVE",
"78 121 LINE",
"-10 122 LINE",
"-10 52 LINE"
);
},
{
closed = 1;
nodes = (
"216 52 OFFCURVE",
"255 83 OFFCURVE",
"275 110 CURVE",
"274 122 LINE",
"231 113 OFFCURVE",
"198 107 OFFCURVE",
"174 107 CURVE SMOOTH",
"90 107 OFFCURVE",
"116 144 OFFCURVE",
"179 235 CURVE",
"154 239 OFFCURVE",
"134 235 OFFCURVE",
"117 225 CURVE",
"92 184 LINE SMOOTH",
"50 115 OFFCURVE",
"39 52 OFFCURVE",
"169 52 CURVE SMOOTH"
);
}
);
};
layerId = "5737A387-D58B-44AF-B5D8-46C6A64E18DE";
width = 526;
}
);
unicode = FEB3;
},
{
color = 5;
glyphname = "sad-ar";
lastChange = "2020-04-03 14:55:48 +0000";
layers = (
{
background = {
paths = (
{
closed = 1;
nodes = (
"358 -98 OFFCURVE",
"417 -60 OFFCURVE",
"417 68 CURVE SMOOTH",
"417 109 OFFCURVE",
"406 178 OFFCURVE",
"386 240 CURVE",
"344 220 LINE",
"364 -28 LINE",
"162 -28 LINE",
"115 14 LINE",
"134 178 LINE",
"113 188 LINE",
"75 106 OFFCURVE",
"70 89 OFFCURVE",
"70 32 CURVE SMOOTH",
"70 -66 OFFCURVE",
"168 -98 OFFCURVE",
"252 -98 CURVE SMOOTH"
);
}
);
};
layerId = "5737A387-D58B-44AF-B5D8-46C6A64E18DE";
paths = (
{
closed = 1;
nodes = (
"732 -8 OFFCURVE",
"770 74 OFFCURVE",
"770 138 CURVE SMOOTH",
"770 226 OFFCURVE",
"717 283 OFFCURVE",
"644 283 CURVE SMOOTH",
"525 283 OFFCURVE",
"427 144 OFFCURVE",
"399 49 CURVE",
"422 49 LINE",
"462 114 OFFCURVE",
"524 200 OFFCURVE",
"640 200 CURVE SMOOTH",
"692 200 OFFCURVE",
"732 198 OFFCURVE",
"732 133 CURVE SMOOTH",
"732 78 OFFCURVE",
"707 65 OFFCURVE",
"602 65 CURVE SMOOTH",
"483 65 OFFCURVE",
"462 68 OFFCURVE",
"343 95 CURVE",
"346 70 OFFCURVE",
"352 51 OFFCURVE",
"364 30 CURVE",
"416 4 OFFCURVE",
"473 -8 OFFCURVE",
"597 -8 CURVE"
);
},
{
closed = 1;
nodes = (
"323 245 OFFCURVE",
"309 239 OFFCURVE",
"300 226 CURVE",
"337 125 OFFCURVE",
"337 92 OFFCURVE",
"337 24 CURVE SMOOTH",
"337 -15 OFFCURVE",
"326 -72 OFFCURVE",
"240 -72 CURVE SMOOTH",
"140 -72 OFFCURVE",
"72 -62 OFFCURVE",
"72 28 CURVE SMOOTH",
"72 65 OFFCURVE",
"75 96 OFFCURVE",
"80 120 CURVE",
"73 125 OFFCURVE",
"66 125 OFFCURVE",
"59 120 CURVE",
"39 65 OFFCURVE",
"30 34 OFFCURVE",
"30 4 CURVE SMOOTH",
"30 -94 OFFCURVE",
"108 -146 OFFCURVE",
"192 -146 CURVE SMOOTH",
"336 -146 OFFCURVE",
"387 -16 OFFCURVE",
"387 60 CURVE SMOOTH",
"387 116 OFFCURVE",
"375 166 OFFCURVE",
"340 242 CURVE"
);
}
);
width = 800;
},
{
associatedMasterId = "5737A387-D58B-44AF-B5D8-46C6A64E18DE";
layerId = "F9302422-060C-49D4-BFB0-9E35AE22666A";
name = "Jan 20 20, 13:00";
paths = (
{
closed = 1;
nodes = (
"360 126 LINE",
"416 65 LINE",
"489 56 OFFCURVE",
"525 52 OFFCURVE",
"599 52 CURVE",
"714 52 OFFCURVE",
"752 114 OFFCURVE",
"752 158 CURVE SMOOTH",
"752 236 OFFCURVE",
"669 299 OFFCURVE",
"611 299 CURVE SMOOTH",
"527 299 OFFCURVE",
"439 204 OFFCURVE",
"401 120 CURVE",
"434 109 LINE",
"595 259 LINE",
"704 173 LINE",
"654 115 LINE",
"539 111 OFFCURVE",
"481 113 OFFCURVE",
"366 129 CURVE"
);
},
{
closed = 1;
nodes = (
"330 240 LINE",
"340 -28 LINE",
"102 -28 LINE",
"65 14 LINE",
"139 178 LINE",
"118 188 LINE",
"45 106 OFFCURVE",
"20 59 OFFCURVE",
"20 12 CURVE SMOOTH",
"20 -96 OFFCURVE",
"148 -98 OFFCURVE",
"292 -98 CURVE SMOOTH",
"358 -98 OFFCURVE",
"390 -60 OFFCURVE",
"390 18 CURVE SMOOTH",
"390 250 LINE"
);
}
);
width = 772;
},
{
associatedMasterId = "5737A387-D58B-44AF-B5D8-46C6A64E18DE";
background = {
paths = (
{
closed = 1;
nodes = (
"358 -98 OFFCURVE",
"417 -60 OFFCURVE",
"417 68 CURVE SMOOTH",
"417 109 OFFCURVE",
"406 178 OFFCURVE",
"386 240 CURVE",
"344 220 LINE",
"364 -28 LINE",
"162 -28 LINE",
"115 14 LINE",
"134 178 LINE",
"113 188 LINE",
"75 106 OFFCURVE",
"70 89 OFFCURVE",
"70 32 CURVE SMOOTH",
"70 -66 OFFCURVE",
"168 -98 OFFCURVE",
"252 -98 CURVE SMOOTH"
);
}
);
};
layerId = "2764D145-CFAC-4C3E-B3C6-10BAF0AA0BAF";
name = "Apr 3 20, 15:55";
paths = (
{
closed = 1;
nodes = (
"812 -8 OFFCURVE",
"850 74 OFFCURVE",
"850 128 CURVE SMOOTH",
"850 226 OFFCURVE",
"787 283 OFFCURVE",
"704 283 CURVE SMOOTH",
"615 283 OFFCURVE",
"517 144 OFFCURVE",
"489 49 CURVE",
"512 49 LINE",
"562 114 OFFCURVE",
"614 200 OFFCURVE",
"700 200 CURVE SMOOTH",
"752 200 OFFCURVE",
"812 198 OFFCURVE",
"812 133 CURVE SMOOTH",
"812 78 OFFCURVE",
"787 65 OFFCURVE",
"682 65 CURVE SMOOTH",
"423 65 OFFCURVE",
"417 86 OFFCURVE",
"401 242 CURVE",
"396 231 OFFCURVE",
"379 73 OFFCURVE",
"384 92 CURVE",
"487 14 OFFCURVE",
"517 -8 OFFCURVE",
"677 -8 CURVE"
);
},
{
closed = 1;
nodes = (
"359 238 OFFCURVE",
"331 228 OFFCURVE",
"321 212 CURVE",
"361 138 OFFCURVE",
"372 52 OFFCURVE",
"372 24 CURVE SMOOTH",
"372 -15 OFFCURVE",
"356 -22 OFFCURVE",
"250 -22 CURVE SMOOTH",
"140 -22 OFFCURVE",
"72 -12 OFFCURVE",
"72 78 CURVE SMOOTH",
"72 115 OFFCURVE",
"82 146 OFFCURVE",
"94 170 CURVE",
"87 175 OFFCURVE",
"80 175 OFFCURVE",
"73 170 CURVE",
"43 115 OFFCURVE",
"30 84 OFFCURVE",
"30 54 CURVE SMOOTH",
"30 -44 OFFCURVE",
"128 -96 OFFCURVE",
"222 -96 CURVE SMOOTH",
"346 -96 OFFCURVE",
"417 -26 OFFCURVE",
"417 60 CURVE SMOOTH",
"417 86 OFFCURVE",
"411 166 OFFCURVE",
"401 242 CURVE"
);
}
);
width = 880;
}
);
unicode = 0635;
},
{
color = 3;
glyphname = "sad-ar.fina";
lastChange = "2020-04-03 14:55:20 +0000";
layers = (
{
background = {
hints = (
{
origin = "{3, 14}";
type = Cap;
name = _cap.joint;
}
);
paths = (
{
closed = 1;
nodes = (
"268 376 LINE",
"255 400 OFFCURVE",
"241 415 OFFCURVE",
"221 425 CURVE",
"164 378 LINE",
"177 352 OFFCURVE",
"187 344 OFFCURVE",
"211 329 CURVE"
);
},
{
closed = 1;
nodes = (
"388 376 LINE",
"375 400 OFFCURVE",
"361 415 OFFCURVE",
"341 425 CURVE",
"284 378 LINE",
"297 352 OFFCURVE",
"307 344 OFFCURVE",
"331 329 CURVE"
);
},
{
closed = 1;
nodes = (
"206 275 OFFCURVE",
"150 194 OFFCURVE",
"150 110 CURVE SMOOTH",
"150 23 OFFCURVE",
"199 -10 OFFCURVE",
"254 -10 CURVE SMOOTH",
"299 -10 OFFCURVE",
"325 12 OFFCURVE",
"354 50 CURVE",
"354 80 LINE",
"317 67 OFFCURVE",
"289 59 OFFCURVE",
"257 59 CURVE SMOOTH",
"217 59 OFFCURVE",
"189 71 OFFCURVE",
"189 122 CURVE SMOOTH",
"189 175 OFFCURVE",
"223 190 OFFCURVE",
"251 190 CURVE SMOOTH",
"304 190 OFFCURVE",
"350 137 OFFCURVE",
"350 18 CURVE SMOOTH",
"350 -36 OFFCURVE",
"340 -112 OFFCURVE",
"190 -112 CURVE SMOOTH",
"90 -112 OFFCURVE",
"22 -102 OFFCURVE",
"22 -10 CURVE SMOOTH",
"22 25 OFFCURVE",
"28 56 OFFCURVE",
"30 80 CURVE",
"23 85 OFFCURVE",
"16 85 OFFCURVE",
"9 80 CURVE",
"-11 25 OFFCURVE",
"-20 -6 OFFCURVE",
"-20 -36 CURVE SMOOTH",
"-20 -134 OFFCURVE",
"68 -186 OFFCURVE",
"195 -186 CURVE SMOOTH",
"318 -186 OFFCURVE",
"389 -106 OFFCURVE",
"389 42 CURVE SMOOTH",
"389 180 OFFCURVE",
"334 275 OFFCURVE",
"267 275 CURVE SMOOTH"
);
},
{
closed = 1;
nodes = (
"557 65 OFFCURVE",
"514 66 OFFCURVE",
"465 75 CURVE SMOOTH",
"400 87 OFFCURVE",
"382 130 OFFCURVE",
"345 240 CURVE",
"326 247 OFFCURVE",
"311 243 OFFCURVE",
"298 228 CURVE",
"317 160 OFFCURVE",
"327 120 OFFCURVE",
"327 100 CURVE SMOOTH",
"327 68 OFFCURVE",
"308 68 OFFCURVE",
"190 68 CURVE",
"190 -10 LINE",
"308 -10 OFFCURVE",
"395 34 OFFCURVE",
"363 108 CURVE",
"346 98 LINE",
"433 13 OFFCURVE",
"471 -8 OFFCURVE",
"626 -8 CURVE SMOOTH",
"781 -8 OFFCURVE",
"809 74 OFFCURVE",
"809 138 CURVE SMOOTH",
"809 226 OFFCURVE",
"760 283 OFFCURVE",
"691 283 CURVE SMOOTH",
"594 283 OFFCURVE",
"491 163 OFFCURVE",
"455 70 CURVE",
"484 65 LINE",
"532 128 OFFCURVE",
"593 200 OFFCURVE",
"684 200 CURVE SMOOTH",
"725 200 OFFCURVE",
"771 198 OFFCURVE",
"771 132 CURVE SMOOTH",
"771 78 OFFCURVE",
"746 65 OFFCURVE",
"641 65 CURVE SMOOTH"
);
}
);
};
hints = (
{
origin = "{1, 7}";
type = Cap;
name = _cap.joint;
}
);
layerId = "5737A387-D58B-44AF-B5D8-46C6A64E18DE";
paths = (
{
closed = 1;
nodes = (
"732 -8 OFFCURVE",
"770 74 OFFCURVE",
"770 138 CURVE SMOOTH",
"770 226 OFFCURVE",
"717 283 OFFCURVE",
"644 283 CURVE SMOOTH",
"525 283 OFFCURVE",
"427 144 OFFCURVE",
"399 49 CURVE",
"422 49 LINE",
"462 114 OFFCURVE",
"524 200 OFFCURVE",
"640 200 CURVE SMOOTH",
"692 200 OFFCURVE",
"732 198 OFFCURVE",
"732 133 CURVE SMOOTH",
"732 78 OFFCURVE",
"707 65 OFFCURVE",
"602 65 CURVE SMOOTH",
"483 65 OFFCURVE",
"462 68 OFFCURVE",
"343 95 CURVE",
"346 70 OFFCURVE",
"352 51 OFFCURVE",
"364 30 CURVE",
"416 4 OFFCURVE",
"473 -8 OFFCURVE",
"597 -8 CURVE"
);
},
{
closed = 1;
nodes = (
"831 68 LINE",
"796 68 OFFCURVE",
"764 70 OFFCURVE",
"740 80 CURVE",
"708 29 LINE",
"756 0 OFFCURVE",
"791 -10 OFFCURVE",
"831 -10 CURVE"
);
},
{
closed = 1;
nodes = (
"323 245 OFFCURVE",
"309 239 OFFCURVE",
"300 226 CURVE",
"337 125 OFFCURVE",
"337 92 OFFCURVE",
"337 24 CURVE SMOOTH",
"337 -15 OFFCURVE",
"326 -72 OFFCURVE",
"240 -72 CURVE SMOOTH",
"140 -72 OFFCURVE",
"72 -62 OFFCURVE",
"72 28 CURVE SMOOTH",
"72 65 OFFCURVE",
"75 96 OFFCURVE",
"80 120 CURVE",
"73 125 OFFCURVE",
"66 125 OFFCURVE",
"59 120 CURVE",
"39 65 OFFCURVE",
"30 34 OFFCURVE",
"30 4 CURVE SMOOTH",
"30 -94 OFFCURVE",
"108 -146 OFFCURVE",
"192 -146 CURVE SMOOTH",
"336 -146 OFFCURVE",
"387 -16 OFFCURVE",
"387 60 CURVE SMOOTH",
"387 116 OFFCURVE",
"375 166 OFFCURVE",
"340 242 CURVE"
);
}
);
width = 831;
},
{
associatedMasterId = "5737A387-D58B-44AF-B5D8-46C6A64E18DE";
hints = (
{
origin = "{0, 53}";
target = "{0, 54}";
type = Cap;
name = _cap.joint;
}
);
layerId = "06A6B331-AB4E-4E3B-878C-24D6ACD3DC0F";
name = "Apr 3 20, 15:50";
paths = (
{
closed = 1;
nodes = (
"884 68 OFFCURVE",
"859 69 OFFCURVE",
"838 74 CURVE",
"847 95 OFFCURVE",
"850 117 OFFCURVE",
"850 138 CURVE SMOOTH",
"850 226 OFFCURVE",
"801 283 OFFCURVE",
"732 283 CURVE SMOOTH",
"637 283 OFFCURVE",
"537 169 OFFCURVE",
"499 77 CURVE",
"440 90 OFFCURVE",
"422 134 OFFCURVE",
"386 240 CURVE",
"367 247 OFFCURVE",
"352 243 OFFCURVE",
"339 228 CURVE",
"358 160 OFFCURVE",
"367 120 OFFCURVE",
"368 100 CURVE SMOOTH",
"372 13 OFFCURVE",
"386 -22 OFFCURVE",
"250 -22 CURVE SMOOTH",
"140 -22 OFFCURVE",
"72 -12 OFFCURVE",
"72 78 CURVE SMOOTH",
"72 115 OFFCURVE",
"82 146 OFFCURVE",
"94 170 CURVE",
"87 175 OFFCURVE",
"80 175 OFFCURVE",
"73 170 CURVE",
"43 115 OFFCURVE",
"30 84 OFFCURVE",
"30 54 CURVE SMOOTH",
"30 -44 OFFCURVE",
"128 -96 OFFCURVE",
"222 -96 CURVE SMOOTH",
"346 -96 OFFCURVE",
"417 -26 OFFCURVE",
"417 60 CURVE SMOOTH",
"417 63 OFFCURVE",
"417 67 OFFCURVE",
"416 70 CURVE",
"484 8 OFFCURVE",
"530 -8 OFFCURVE",
"667 -8 CURVE SMOOTH",
"728 -8 OFFCURVE",
"769 5 OFFCURVE",
"797 24 CURVE",
"840 -1 OFFCURVE",
"873 -10 OFFCURVE",
"911 -10 CURVE",
"911 68 LINE"
);
},
{
closed = 1;
nodes = (
"577 133 OFFCURVE",
"637 200 OFFCURVE",
"725 200 CURVE SMOOTH",
"766 200 OFFCURVE",
"812 198 OFFCURVE",
"812 132 CURVE SMOOTH",
"812 78 OFFCURVE",
"787 65 OFFCURVE",
"682 65 CURVE SMOOTH",
"612 65 OFFCURVE",
"570 66 OFFCURVE",
"530 71 CURVE"
);
}
);
width = 911;
}
);
rightMetricsKey = "=-46";
unicode = FEBA;
},
{
color = 3;
glyphname = "sad-ar.medi";
lastChange = "2020-04-03 11:12:58 +0000";
layers = (
{
hints = (
{
origin = "{0, 14}";
type = Cap;
name = _cap.joint;
},
{
origin = "{1, 7}";
type = Cap;
name = _cap.joint;
}
);
layerId = "5737A387-D58B-44AF-B5D8-46C6A64E18DE";
paths = (
{
closed = 1;
nodes = (
"367 65 OFFCURVE",
"324 66 OFFCURVE",
"275 75 CURVE SMOOTH",
"210 87 OFFCURVE",
"192 130 OFFCURVE",
"155 240 CURVE",
"136 247 OFFCURVE",
"121 243 OFFCURVE",
"108 228 CURVE",
"127 160 OFFCURVE",
"137 120 OFFCURVE",
"137 100 CURVE SMOOTH",
"137 68 OFFCURVE",
"118 68 OFFCURVE",
"0 68 CURVE",
"0 -10 LINE",
"118 -10 OFFCURVE",
"205 34 OFFCURVE",
"173 108 CURVE",
"156 98 LINE",
"243 13 OFFCURVE",
"281 -8 OFFCURVE",
"436 -8 CURVE SMOOTH",
"591 -8 OFFCURVE",
"619 74 OFFCURVE",
"619 138 CURVE SMOOTH",
"619 226 OFFCURVE",
"570 283 OFFCURVE",
"501 283 CURVE SMOOTH",
"404 283 OFFCURVE",
"301 163 OFFCURVE",
"265 70 CURVE",
"294 65 LINE",
"342 128 OFFCURVE",
"403 200 OFFCURVE",
"494 200 CURVE SMOOTH",
"535 200 OFFCURVE",
"581 198 OFFCURVE",
"581 132 CURVE SMOOTH",
"581 78 OFFCURVE",
"556 65 OFFCURVE",
"451 65 CURVE SMOOTH"
);
},
{
closed = 1;
nodes = (
"680 68 LINE",
"645 68 OFFCURVE",
"613 70 OFFCURVE",
"589 80 CURVE",
"557 29 LINE",
"605 0 OFFCURVE",
"640 -10 OFFCURVE",
"680 -10 CURVE"
);
}
);
width = 680;
},
{
associatedMasterId = "5737A387-D58B-44AF-B5D8-46C6A64E18DE";
hints = (
{
origin = "{0, 6}";
target = "{0, 7}";
type = Cap;
name = _cap.joint;
},
{
origin = "{1, 15}";
target = "{1, 0}";
type = Cap;
name = _cap.joint;
}
);
layerId = "189D16D1-5414-47A6-9742-E58C949299EA";
name = "Apr 3 20, 12:11";
paths = (
{
closed = 1;
nodes = (
"657 68 OFFCURVE",
"626 74 OFFCURVE",
"596 100 CURVE",
"596 83 LINE",
"614 12 OFFCURVE",
"637 -10 OFFCURVE",
"677 -10 CURVE",
"677 68 LINE"
);
},
{
closed = 1;
nodes = (
"0 -10 LINE",
"131 -10 OFFCURVE",
"179 58 OFFCURVE",
"179 114 CURVE SMOOTH",
"179 154 OFFCURVE",
"178 173 OFFCURVE",
"170 240 CURVE",
"140 246 OFFCURVE",
"107 237 OFFCURVE",
"85 214 CURVE",
"123 156 OFFCURVE",
"137 120 OFFCURVE",
"137 100 CURVE SMOOTH",
"137 68 OFFCURVE",
"118 68 OFFCURVE",
"0 68 CURVE"
);
},
{
closed = 1;
nodes = (
"581 -8 OFFCURVE",
"619 74 OFFCURVE",
"619 128 CURVE SMOOTH",
"619 226 OFFCURVE",
"556 283 OFFCURVE",
"473 283 CURVE SMOOTH",
"384 283 OFFCURVE",
"286 144 OFFCURVE",
"258 49 CURVE",
"281 49 LINE",
"331 114 OFFCURVE",
"383 200 OFFCURVE",
"469 200 CURVE SMOOTH",
"521 200 OFFCURVE",
"581 198 OFFCURVE",
"581 133 CURVE SMOOTH",
"581 78 OFFCURVE",
"556 65 OFFCURVE",
"451 65 CURVE SMOOTH",
"192 65 OFFCURVE",
"186 86 OFFCURVE",
"170 240 CURVE",
"165 231 OFFCURVE",
"148 73 OFFCURVE",
"153 92 CURVE",
"256 14 OFFCURVE",
"286 -8 OFFCURVE",
"446 -8 CURVE"
);
}
);
width = 677;
}
);
leftMetricsKey = "=-46";
rightMetricsKey = "=-46";
unicode = FEBC;
},
{
color = 3;
glyphname = "sad-ar.init";
lastChange = "2020-04-03 11:01:15 +0000";
layers = (
{
hints = (
{
origin = "{0, 14}";
target = "{0, 15}";
type = Cap;
name = _cap.joint;
}
);
layerId = "5737A387-D58B-44AF-B5D8-46C6A64E18DE";
paths = (
{
closed = 1;
nodes = (
"367 65 OFFCURVE",
"324 66 OFFCURVE",
"275 75 CURVE SMOOTH",
"210 87 OFFCURVE",
"192 130 OFFCURVE",
"155 240 CURVE",
"136 247 OFFCURVE",
"121 243 OFFCURVE",
"108 228 CURVE",
"127 160 OFFCURVE",
"137 120 OFFCURVE",
"137 100 CURVE SMOOTH",
"137 68 OFFCURVE",
"118 68 OFFCURVE",
"0 68 CURVE",
"0 -10 LINE",
"118 -10 OFFCURVE",
"205 34 OFFCURVE",
"173 108 CURVE",
"156 98 LINE",
"243 13 OFFCURVE",
"281 -8 OFFCURVE",
"436 -8 CURVE SMOOTH",
"591 -8 OFFCURVE",
"619 74 OFFCURVE",
"619 138 CURVE SMOOTH",
"619 226 OFFCURVE",
"570 283 OFFCURVE",
"501 283 CURVE SMOOTH",
"404 283 OFFCURVE",
"301 163 OFFCURVE",
"265 70 CURVE",
"294 65 LINE",
"342 128 OFFCURVE",
"403 200 OFFCURVE",
"494 200 CURVE SMOOTH",
"535 200 OFFCURVE",
"581 198 OFFCURVE",
"581 132 CURVE SMOOTH",
"581 78 OFFCURVE",
"556 65 OFFCURVE",
"451 65 CURVE SMOOTH"
);
}
);
width = 649;
},
{
associatedMasterId = "5737A387-D58B-44AF-B5D8-46C6A64E18DE";
layerId = "D3297F28-6637-4F5D-9EF9-B68BB0B77B86";
name = "Apr 1 20, 13:09";
paths = (
{
closed = 1;
nodes = (
"392 283 OFFCURVE",
"304 168 OFFCURVE",
"267 76 CURVE",
"233 91 OFFCURVE",
"215 126 OFFCURVE",
"185 240 CURVE",
"170 242 OFFCURVE",
"149 238 OFFCURVE",
"139 226 CURVE",
"149 175 OFFCURVE",
"153 120 OFFCURVE",
"153 100 CURVE SMOOTH",
"153 68 OFFCURVE",
"148 68 OFFCURVE",
"30 68 CURVE SMOOTH",
"4 68 OFFCURVE",
"-16 50 OFFCURVE",
"-16 29 CURVE SMOOTH",
"-16 8 OFFCURVE",
"4 -10 OFFCURVE",
"30 -10 CURVE SMOOTH",
"133 -10 OFFCURVE",
"167 2 OFFCURVE",
"191 73 CURVE",
"225 5 OFFCURVE",
"267 -8 OFFCURVE",
"446 -8 CURVE SMOOTH",
"581 -8 OFFCURVE",
"619 74 OFFCURVE",
"619 128 CURVE SMOOTH",
"619 226 OFFCURVE",
"581 283 OFFCURVE",
"488 283 CURVE SMOOTH"
);
},
{
closed = 1;
nodes = (
"385 65 OFFCURVE",
"335 66 OFFCURVE",
"298 71 CURVE",
"343 132 OFFCURVE",
"392 200 OFFCURVE",
"483 200 CURVE SMOOTH",
"521 200 OFFCURVE",
"581 198 OFFCURVE",
"581 133 CURVE SMOOTH",
"581 78 OFFCURVE",
"556 65 OFFCURVE",
"451 65 CURVE SMOOTH"
);
}
);
width = 649;
}
);
rightMetricsKey = "=sad-ar";
unicode = FEBB;
},
{
color = 3;
glyphname = "tah-ar";
lastChange = "2020-04-03 11:08:13 +0000";
layers = (
{
background = {
paths = (
{
closed = 1;
nodes = (
"472 288 OFFCURVE",
"446 278 OFFCURVE",
"424 252 CURVE",
"476 188 OFFCURVE",
"490 142 OFFCURVE",
"490 114 CURVE SMOOTH",
"490 75 OFFCURVE",
"474 68 OFFCURVE",
"338 68 CURVE SMOOTH",
"68 68 OFFCURVE",
"0 78 OFFCURVE",
"0 168 CURVE SMOOTH",
"0 205 OFFCURVE",
"10 236 OFFCURVE",
"22 260 CURVE",
"15 265 OFFCURVE",
"8 265 OFFCURVE",
"1 260 CURVE",
"-29 205 OFFCURVE",
"-42 174 OFFCURVE",
"-42 144 CURVE SMOOTH",
"-42 46 OFFCURVE",
"56 -10 OFFCURVE",
"240 -10 CURVE SMOOTH",
"464 -10 OFFCURVE",
"535 64 OFFCURVE",
"535 150 CURVE SMOOTH",
"535 176 OFFCURVE",
"526 216 OFFCURVE",
"504 282 CURVE"
);
}
);
};
guideLines = (
{
position = "{616, 273}";
}
);
layerId = "5737A387-D58B-44AF-B5D8-46C6A64E18DE";
paths = (
{
closed = 1;
nodes = (
"482 -8 OFFCURVE",
"520 74 OFFCURVE",
"520 138 CURVE SMOOTH",
"520 226 OFFCURVE",
"467 283 OFFCURVE",
"394 283 CURVE SMOOTH",
"275 283 OFFCURVE",
"167 144 OFFCURVE",
"139 49 CURVE",
"162 49 LINE",
"212 114 OFFCURVE",
"274 200 OFFCURVE",
"390 200 CURVE SMOOTH",
"442 200 OFFCURVE",
"482 198 OFFCURVE",
"482 133 CURVE SMOOTH",
"482 78 OFFCURVE",
"457 65 OFFCURVE",
"352 65 CURVE SMOOTH",
"233 65 OFFCURVE",
"182 68 OFFCURVE",
"23 95 CURVE",
"26 70 OFFCURVE",
"32 51 OFFCURVE",
"44 30 CURVE",
"136 4 OFFCURVE",
"223 -8 OFFCURVE",
"347 -8 CURVE"
);
},
{
closed = 1;
nodes = (
"217 613 OFFCURVE",
"213 617 OFFCURVE",
"206 620 CURVE",
"183 620 OFFCURVE",
"163 595 OFFCURVE",
"148 569 CURVE",
"159 388 OFFCURVE",
"160 231 OFFCURVE",
"155 60 CURVE",
"214 133 LINE",
"211 226 OFFCURVE",
"213 383 OFFCURVE",
"220 606 CURVE"
);
}
);
width = 550;
},
{
associatedMasterId = "5737A387-D58B-44AF-B5D8-46C6A64E18DE";
layerId = "A42491D6-09CA-4A25-8EB3-0DF52C373F4F";
name = "Jan 19 20, 17:53";
paths = (
{
closed = 1;
nodes = (
"20 126 LINE",
"96 65 LINE",
"170 57 OFFCURVE",
"245 52 OFFCURVE",
"319 52 CURVE",
"434 52 OFFCURVE",
"473 113 OFFCURVE",
"472 188 CURVE",
"444 250 OFFCURVE",
"389 299 OFFCURVE",
"331 299 CURVE SMOOTH",
"247 299 OFFCURVE",
"149 184 OFFCURVE",
"121 120 CURVE",
"158 108 LINE",
"177 151 OFFCURVE",
"245 214 OFFCURVE",
"289 240 CURVE",
"347 227 OFFCURVE",
"397 207 OFFCURVE",
"420 169 CURVE",
"414 144 OFFCURVE",
"398 132 OFFCURVE",
"371 122 CURVE",
"256 116 OFFCURVE",
"141 122 OFFCURVE",
"26 136 CURVE"
);
},
{
closed = 1;
nodes = (
"142 391 OFFCURVE",
"140 266 OFFCURVE",
"128 123 CURVE",
"159 154 LINE",
"187 267 OFFCURVE",
"200 376 OFFCURVE",
"185 501 CURVE",
"131 477 LINE"
);
},
{
closed = 1;
nodes = (
"225 443 LINE",
"207 468 OFFCURVE",
"199 477 OFFCURVE",
"185 511 CURVE",
"172 511 LINE",
"131 477 LINE",
"139 458 OFFCURVE",
"151 442 OFFCURVE",
"169 427 CURVE",
"222 437 LINE"
);
}
);
width = 492;
},
{
associatedMasterId = "5737A387-D58B-44AF-B5D8-46C6A64E18DE";
background = {
paths = (
{
closed = 1;
nodes = (
"472 288 OFFCURVE",
"446 278 OFFCURVE",
"424 252 CURVE",
"476 188 OFFCURVE",
"490 142 OFFCURVE",
"490 114 CURVE SMOOTH",
"490 75 OFFCURVE",
"474 68 OFFCURVE",
"338 68 CURVE SMOOTH",
"68 68 OFFCURVE",
"0 78 OFFCURVE",
"0 168 CURVE SMOOTH",
"0 205 OFFCURVE",
"10 236 OFFCURVE",
"22 260 CURVE",
"15 265 OFFCURVE",
"8 265 OFFCURVE",
"1 260 CURVE",
"-29 205 OFFCURVE",
"-42 174 OFFCURVE",
"-42 144 CURVE SMOOTH",
"-42 46 OFFCURVE",
"56 -10 OFFCURVE",
"240 -10 CURVE SMOOTH",
"464 -10 OFFCURVE",
"535 64 OFFCURVE",
"535 150 CURVE SMOOTH",
"535 176 OFFCURVE",
"526 216 OFFCURVE",
"504 282 CURVE"
);
}
);
};
guideLines = (
{
position = "{616, 273}";
}
);
layerId = "662E8170-4FB9-4F22-A13E-0757709F7E0A";
name = "Apr 3 20, 12:08";
paths = (
{
closed = 1;
nodes = (
"482 -8 OFFCURVE",
"520 74 OFFCURVE",
"520 128 CURVE SMOOTH",
"520 226 OFFCURVE",
"457 283 OFFCURVE",
"374 283 CURVE SMOOTH",
"265 283 OFFCURVE",
"167 144 OFFCURVE",
"139 49 CURVE",
"162 49 LINE",
"212 114 OFFCURVE",
"264 200 OFFCURVE",
"370 200 CURVE SMOOTH",
"422 200 OFFCURVE",
"482 198 OFFCURVE",
"482 133 CURVE SMOOTH",
"482 78 OFFCURVE",
"457 65 OFFCURVE",
"352 65 CURVE SMOOTH",
"233 65 OFFCURVE",
"183 68 OFFCURVE",
"34 95 CURVE",
"29 84 OFFCURVE",
"29 73 OFFCURVE",
"34 62 CURVE",
"137 14 OFFCURVE",
"223 -8 OFFCURVE",
"347 -8 CURVE"
);
},
{
closed = 1;
nodes = (
"217 613 OFFCURVE",
"213 617 OFFCURVE",
"206 620 CURVE",
"183 620 OFFCURVE",
"163 595 OFFCURVE",
"148 569 CURVE",
"159 388 OFFCURVE",
"160 231 OFFCURVE",
"155 60 CURVE",
"214 133 LINE",
"211 226 OFFCURVE",
"213 383 OFFCURVE",
"220 606 CURVE"
);
}
);
width = 550;
}
);
unicode = 0637;
},
{
color = 3;
glyphname = "tah-ar.fina";
lastChange = "2020-04-03 11:07:18 +0000";
layers = (
{
associatedMasterId = "5737A387-D58B-44AF-B5D8-46C6A64E18DE";
hints = (
{
origin = "{2, 7}";
target = "{2, 0}";
type = Cap;
name = _cap.joint;
}
);
layerId = "6D997EDA-F95F-439B-A6AC-003F3692C45D";
name = "Apr 1 20, 13:13";
paths = (
{
closed = 1;
nodes = (
"499 0 OFFCURVE",
"520 75 OFFCURVE",
"520 147 CURVE SMOOTH",
"520 226 OFFCURVE",
"492 283 OFFCURVE",
"386 283 CURVE SMOOTH",
"278 283 OFFCURVE",
"197 173 OFFCURVE",
"139 49 CURVE",
"159 49 LINE",
"234 144 OFFCURVE",
"286 200 OFFCURVE",
"383 200 CURVE SMOOTH",
"455 200 OFFCURVE",
"482 177 OFFCURVE",
"482 121 CURVE SMOOTH",
"482 80 OFFCURVE",
"457 68 OFFCURVE",
"352 68 CURVE SMOOTH",
"233 68 OFFCURVE",
"183 71 OFFCURVE",
"34 95 CURVE",
"29 84 OFFCURVE",
"29 73 OFFCURVE",
"52 25 CURVE",
"137 14 OFFCURVE",
"223 -5 OFFCURVE",
"347 -5 CURVE"
);
},
{
closed = 1;
nodes = (
"211 613 OFFCURVE",
"207 617 OFFCURVE",
"200 620 CURVE",
"177 620 OFFCURVE",
"157 595 OFFCURVE",
"142 569 CURVE",
"153 388 OFFCURVE",
"154 231 OFFCURVE",
"149 60 CURVE",
"208 133 LINE",
"205 226 OFFCURVE",
"207 383 OFFCURVE",
"214 606 CURVE"
);
},
{
closed = 1;
nodes = (
"581 68 LINE",
"546 68 OFFCURVE",
"520 71 OFFCURVE",
"495 81 CURVE",
"460 33 LINE",
"499 -2 OFFCURVE",
"541 -10 OFFCURVE",
"581 -10 CURVE"
);
}
);
width = 581;
},
{
background = {
hints = (
{
origin = "{0, 14}";
type = Cap;
name = _cap.joint;
}
);
paths = (
{
closed = 1;
nodes = (
"267 65 OFFCURVE",
"224 66 OFFCURVE",
"175 75 CURVE SMOOTH",
"110 87 OFFCURVE",
"92 130 OFFCURVE",
"55 240 CURVE",
"36 247 OFFCURVE",
"21 243 OFFCURVE",
"8 228 CURVE",
"27 160 OFFCURVE",
"37 120 OFFCURVE",
"37 100 CURVE SMOOTH",
"37 68 OFFCURVE",
"18 68 OFFCURVE",
"-100 68 CURVE",
"-100 -10 LINE",
"18 -10 OFFCURVE",
"105 34 OFFCURVE",
"73 108 CURVE",
"56 98 LINE",
"143 13 OFFCURVE",
"181 -8 OFFCURVE",
"336 -8 CURVE SMOOTH",
"491 -8 OFFCURVE",
"519 74 OFFCURVE",
"519 138 CURVE SMOOTH",
"519 226 OFFCURVE",
"470 283 OFFCURVE",
"401 283 CURVE SMOOTH",
"304 283 OFFCURVE",
"201 163 OFFCURVE",
"165 70 CURVE",
"194 65 LINE",
"242 128 OFFCURVE",
"303 200 OFFCURVE",
"394 200 CURVE SMOOTH",
"435 200 OFFCURVE",
"481 198 OFFCURVE",
"481 132 CURVE SMOOTH",
"481 78 OFFCURVE",
"456 65 OFFCURVE",
"351 65 CURVE SMOOTH"
);
}
);
};
hints = (
{
origin = "{2, 7}";
target = "{2, 0}";
type = Cap;
name = _cap.joint;
}
);
layerId = "5737A387-D58B-44AF-B5D8-46C6A64E18DE";
paths = (
{
closed = 1;
nodes = (
"482 -8 OFFCURVE",
"520 74 OFFCURVE",
"520 138 CURVE SMOOTH",
"520 226 OFFCURVE",
"467 283 OFFCURVE",
"394 283 CURVE SMOOTH",
"275 283 OFFCURVE",
"167 144 OFFCURVE",
"139 49 CURVE",
"162 49 LINE",
"212 114 OFFCURVE",
"274 200 OFFCURVE",
"390 200 CURVE SMOOTH",
"442 200 OFFCURVE",
"482 198 OFFCURVE",
"482 133 CURVE SMOOTH",
"482 78 OFFCURVE",
"457 65 OFFCURVE",
"352 65 CURVE SMOOTH",
"233 65 OFFCURVE",
"182 68 OFFCURVE",
"23 95 CURVE",
"26 70 OFFCURVE",
"32 51 OFFCURVE",
"44 30 CURVE",
"136 4 OFFCURVE",
"223 -8 OFFCURVE",
"347 -8 CURVE"
);
},
{
closed = 1;
nodes = (
"217 613 OFFCURVE",
"213 617 OFFCURVE",
"206 620 CURVE",
"183 620 OFFCURVE",
"163 595 OFFCURVE",
"148 569 CURVE",
"159 388 OFFCURVE",
"160 231 OFFCURVE",
"155 60 CURVE",
"214 133 LINE",
"211 226 OFFCURVE",
"213 383 OFFCURVE",
"220 606 CURVE"
);
},
{
closed = 1;
nodes = (
"581 68 LINE",
"546 68 OFFCURVE",
"514 70 OFFCURVE",
"490 80 CURVE",
"458 29 LINE",
"506 0 OFFCURVE",
"541 -10 OFFCURVE",
"581 -10 CURVE"
);
}
);
width = 581;
},
{
associatedMasterId = "5737A387-D58B-44AF-B5D8-46C6A64E18DE";
hints = (
{
origin = "{2, 7}";
target = "{2, 0}";
type = Cap;
name = _cap.joint;
}
);
layerId = "02C4C8A8-12C0-4C77-B93E-9887B0FC5ED6";
name = "Apr 3 20, 12:04";
paths = (
{
closed = 1;
nodes = (
"482 -8 OFFCURVE",
"520 74 OFFCURVE",
"520 128 CURVE SMOOTH",
"520 226 OFFCURVE",
"457 283 OFFCURVE",
"374 283 CURVE SMOOTH",
"265 283 OFFCURVE",
"167 144 OFFCURVE",
"139 49 CURVE",
"162 49 LINE",
"212 114 OFFCURVE",
"264 200 OFFCURVE",
"370 200 CURVE SMOOTH",
"422 200 OFFCURVE",
"482 198 OFFCURVE",
"482 133 CURVE SMOOTH",
"482 78 OFFCURVE",
"457 65 OFFCURVE",
"352 65 CURVE SMOOTH",
"233 65 OFFCURVE",
"183 68 OFFCURVE",
"34 95 CURVE",
"29 84 OFFCURVE",
"29 73 OFFCURVE",
"34 62 CURVE",
"137 14 OFFCURVE",
"223 -8 OFFCURVE",
"347 -8 CURVE"
);
},
{
closed = 1;
nodes = (
"217 613 OFFCURVE",
"213 617 OFFCURVE",
"206 620 CURVE",
"183 620 OFFCURVE",
"163 595 OFFCURVE",
"148 569 CURVE",
"159 388 OFFCURVE",
"160 231 OFFCURVE",
"155 60 CURVE",
"214 133 LINE",
"211 226 OFFCURVE",
"213 383 OFFCURVE",
"220 606 CURVE"
);
},
{
closed = 1;
nodes = (
"581 68 LINE",
"546 68 OFFCURVE",
"524 79 OFFCURVE",
"500 100 CURVE",
"500 83 LINE",
"518 12 OFFCURVE",
"541 -10 OFFCURVE",
"581 -10 CURVE"
);
}
);
width = 581;
}
);
unicode = FEC2;
},
{
color = 3;
glyphname = "tah-ar.medi";
lastChange = "2020-04-03 11:10:42 +0000";
layers = (
{
hints = (
{
origin = "{2, 7}";
type = Cap;
name = _cap.joint;
},
{
origin = "{1, 21}";
target = "{1, 22}";
type = Cap;
name = _cap.joint;
}
);
layerId = "5737A387-D58B-44AF-B5D8-46C6A64E18DE";
paths = (
{
closed = 1;
nodes = (
"184 613 OFFCURVE",
"180 617 OFFCURVE",
"173 620 CURVE",
"150 620 OFFCURVE",
"130 595 OFFCURVE",
"115 569 CURVE",
"126 388 OFFCURVE",
"127 231 OFFCURVE",
"122 60 CURVE",
"181 133 LINE",
"178 226 OFFCURVE",
"180 383 OFFCURVE",
"187 606 CURVE"
);
},
{
closed = 1;
nodes = (
"449 -8 OFFCURVE",
"487 74 OFFCURVE",
"487 138 CURVE SMOOTH",
"487 226 OFFCURVE",
"434 283 OFFCURVE",
"361 283 CURVE SMOOTH",
"242 283 OFFCURVE",
"134 144 OFFCURVE",
"106 49 CURVE",
"129 49 LINE",
"179 114 OFFCURVE",
"241 200 OFFCURVE",
"357 200 CURVE SMOOTH",
"409 200 OFFCURVE",
"449 198 OFFCURVE",
"449 133 CURVE SMOOTH",
"449 78 OFFCURVE",
"424 65 OFFCURVE",
"319 65 CURVE SMOOTH",
"200 65 OFFCURVE",
"149 65 OFFCURVE",
"0 68 CURVE",
"0 -10 LINE",
"92 -8 OFFCURVE",
"190 -8 OFFCURVE",
"314 -8 CURVE"
);
},
{
closed = 1;
nodes = (
"548 68 LINE",
"513 68 OFFCURVE",
"481 70 OFFCURVE",
"457 80 CURVE",
"425 29 LINE",
"473 0 OFFCURVE",
"508 -10 OFFCURVE",
"548 -10 CURVE"
);
}
);
width = 548;
},
{
associatedMasterId = "5737A387-D58B-44AF-B5D8-46C6A64E18DE";
layerId = "6DFEE949-6CD6-45EE-844B-9D6DBF0ED4CE";
name = "Dec 11 19, 16:26";
paths = (
{
closed = 1;
nodes = (
"-10 52 LINE",
"240 52 LINE",
"358 52 OFFCURVE",
"396 119 OFFCURVE",
"396 194 CURVE SMOOTH",
"396 255 OFFCURVE",
"313 299 OFFCURVE",
"245 299 CURVE SMOOTH",
"171 299 OFFCURVE",
"73 184 OFFCURVE",
"45 120 CURVE",
"82 108 LINE",
"101 151 OFFCURVE",
"169 214 OFFCURVE",
"213 240 CURVE",
"271 228 OFFCURVE",
"305 217 OFFCURVE",
"339 179 CURVE",
"328 140 OFFCURVE",
"299 122 OFFCURVE",
"275 122 CURVE",
"-10 123 LINE"
);
},
{
closed = 1;
nodes = (
"412 122 LINE",
"403 123 OFFCURVE",
"392 129 OFFCURVE",
"383 134 CURVE SMOOTH",
"369 141 LINE",
"345 99 LINE",
"412 52 LINE",
"434 52 LINE",
"434 122 LINE"
);
},
{
closed = 1;
nodes = (
"52 123 CURVE",
"83 154 LINE",
"111 267 OFFCURVE",
"124 376 OFFCURVE",
"109 501 CURVE",
"55 477 LINE",
"66 391 OFFCURVE",
"64 266 OFFCURVE"
);
},
{
closed = 1;
nodes = (
"149 443 LINE",
"131 468 OFFCURVE",
"123 477 OFFCURVE",
"109 511 CURVE",
"96 511 LINE",
"55 477 LINE",
"63 458 OFFCURVE",
"75 442 OFFCURVE",
"93 427 CURVE",
"146 437 LINE"
);
}
);
width = 424;
}
);
leftMetricsKey = "=-46";
rightMetricsKey = "=-46";
unicode = FEC4;
},
{
color = 5;
glyphname = "tah-ar.init";
lastChange = "2020-04-03 11:11:19 +0000";
layers = (
{
hints = (
{
origin = "{1, 21}";
type = Cap;
name = _cap.joint;
}
);
layerId = "5737A387-D58B-44AF-B5D8-46C6A64E18DE";
paths = (
{
closed = 1;
nodes = (
"184 613 OFFCURVE",
"180 617 OFFCURVE",
"173 620 CURVE",
"150 620 OFFCURVE",
"130 595 OFFCURVE",
"115 569 CURVE",
"126 388 OFFCURVE",
"127 231 OFFCURVE",
"122 60 CURVE",
"181 133 LINE",
"178 226 OFFCURVE",
"180 383 OFFCURVE",
"187 606 CURVE"
);
},
{
closed = 1;
nodes = (
"449 -8 OFFCURVE",
"487 74 OFFCURVE",
"487 138 CURVE SMOOTH",
"487 226 OFFCURVE",
"434 283 OFFCURVE",
"361 283 CURVE SMOOTH",
"242 283 OFFCURVE",
"134 144 OFFCURVE",
"106 49 CURVE",
"129 49 LINE",
"179 114 OFFCURVE",
"241 200 OFFCURVE",
"357 200 CURVE SMOOTH",
"409 200 OFFCURVE",
"449 198 OFFCURVE",
"449 133 CURVE SMOOTH",
"449 78 OFFCURVE",
"424 65 OFFCURVE",
"319 65 CURVE SMOOTH",
"200 65 OFFCURVE",
"149 65 OFFCURVE",
"0 68 CURVE",
"0 -10 LINE",
"92 -8 OFFCURVE",
"190 -8 OFFCURVE",
"314 -8 CURVE"
);
}
);
width = 517;
},
{
associatedMasterId = "5737A387-D58B-44AF-B5D8-46C6A64E18DE";
hints = (
{
origin = "{0, 21}";
target = "{0, 22}";
type = Cap;
name = _cap.joint;
}
);
layerId = "308AE46E-609E-4EF9-95BC-163519EFF829";
name = "Apr 3 20, 12:11";
paths = (
{
closed = 1;
nodes = (
"448 -8 OFFCURVE",
"486 74 OFFCURVE",
"486 128 CURVE SMOOTH",
"486 226 OFFCURVE",
"423 283 OFFCURVE",
"340 283 CURVE SMOOTH",
"231 283 OFFCURVE",
"133 144 OFFCURVE",
"105 49 CURVE",
"128 49 LINE",
"178 114 OFFCURVE",
"230 200 OFFCURVE",
"336 200 CURVE SMOOTH",
"388 200 OFFCURVE",
"448 198 OFFCURVE",
"448 133 CURVE SMOOTH",
"448 78 OFFCURVE",
"423 65 OFFCURVE",
"318 65 CURVE SMOOTH",
"215 65 OFFCURVE",
"113 66 OFFCURVE",
"0 68 CURVE",
"0 -10 LINE",
"113 -8 OFFCURVE",
"189 -8 OFFCURVE",
"313 -8 CURVE SMOOTH"
);
},
{
closed = 1;
nodes = (
"183 613 OFFCURVE",
"179 617 OFFCURVE",
"172 620 CURVE",
"149 620 OFFCURVE",
"129 595 OFFCURVE",
"114 569 CURVE",
"125 388 OFFCURVE",
"126 231 OFFCURVE",
"121 60 CURVE",
"180 133 LINE",
"177 226 OFFCURVE",
"179 383 OFFCURVE",
"186 606 CURVE"
);
}
);
width = 516;
}
);
leftMetricsKey = "=-46";
unicode = FEC3;
},
{
glyphname = "ain-ar.init";
lastChange = "2020-04-01 12:08:35 +0000";
layers = (
{
guideLines = (
{
position = "{-17, -10}";
},
{
angle = 180;
position = "{-16, 68}";
}
);
hints = (
{
origin = "{0, 2}";
target = "{0, 3}";
type = Cap;
name = _cap.joint;
}
);
layerId = "5737A387-D58B-44AF-B5D8-46C6A64E18DE";
paths = (
{
closed = 1;
nodes = (
"246 99 OFFCURVE",
"156 68 OFFCURVE",
"0 68 CURVE",
"0 -10 LINE",
"99 -10 OFFCURVE",
"185 20 OFFCURVE",
"297 44 CURVE",
"324 70 OFFCURVE",
"333 88 OFFCURVE",
"329 132 CURVE"
);
},
{
closed = 1;
nodes = (
"268 215 OFFCURVE",
"277 219 OFFCURVE",
"280 232 CURVE",
"257 278 OFFCURVE",
"226 308 OFFCURVE",
"169 308 CURVE SMOOTH",
"104 308 OFFCURVE",
"57 241 OFFCURVE",
"57 164 CURVE SMOOTH",
"57 101 OFFCURVE",
"143 21 OFFCURVE",
"246 39 CURVE",
"329 132 LINE",
"226 84 OFFCURVE",
"93 99 OFFCURVE",
"93 162 CURVE SMOOTH",
"93 211 OFFCURVE",
"131 233 OFFCURVE",
"172 233 CURVE SMOOTH",
"209 233 OFFCURVE",
"234 228 OFFCURVE",
"253 213 CURVE"
);
}
);
width = 360;
}
);
leftMetricsKey = "=-46";
unicode = FECB;
},
{
glyphname = "ghain-ar";
lastChange = "2020-03-30 13:59:46 +0000";
layers = (
{
components = (
{
name = dotcomponent;
transform = "{1, 0, 0, 1, 118, 80}";
}
);
layerId = "5737A387-D58B-44AF-B5D8-46C6A64E18DE";
paths = (
{
closed = 1;
nodes = (
"296 283 OFFCURVE",
"305 287 OFFCURVE",
"308 300 CURVE",
"285 346 OFFCURVE",
"254 376 OFFCURVE",
"197 376 CURVE SMOOTH",
"132 376 OFFCURVE",
"85 309 OFFCURVE",
"85 232 CURVE SMOOTH",
"85 169 OFFCURVE",
"161 95 OFFCURVE",
"254 113 CURVE",
"328 202 LINE",
"235 164 OFFCURVE",
"121 167 OFFCURVE",
"121 230 CURVE SMOOTH",
"121 279 OFFCURVE",
"159 301 OFFCURVE",
"200 301 CURVE SMOOTH",
"237 301 OFFCURVE",
"262 296 OFFCURVE",
"281 281 CURVE"
);
},
{
closed = 1;
nodes = (
"328 202 LINE",
"253 158 OFFCURVE",
"40 134 OFFCURVE",
"40 -30 CURVE SMOOTH",
"40 -149 OFFCURVE",
"169 -196 OFFCURVE",
"355 -196 CURVE",
"373 -183 OFFCURVE",
"383 -164 OFFCURVE",
"383 -137 CURVE",
"202 -137 OFFCURVE",
"78 -112 OFFCURVE",
"77 -20 CURVE SMOOTH",
"76 53 OFFCURVE",
"238 98 OFFCURVE",
"330 142 CURVE",
"340 157 OFFCURVE",
"344 183 OFFCURVE",
"340 202 CURVE"
);
}
);
width = 423;
}
);
unicode = 063A;
},
{
glyphname = "qaf-ar";
lastChange = "2020-04-03 10:56:51 +0000";
layers = (
{
background = {
hints = (
{
origin = "{0, 19}";
type = Cap;
name = _cap.joint;
}
);
paths = (
{
closed = 1;
nodes = (
"341 -10 OFFCURVE",
"370 21 OFFCURVE",
"411 66 CURVE",
"411 80 LINE",
"372 70 OFFCURVE",
"333 64 OFFCURVE",
"304 64 CURVE SMOOTH",
"257 64 OFFCURVE",
"210 80 OFFCURVE",
"210 116 CURVE SMOOTH",
"210 173 OFFCURVE",
"250 188 OFFCURVE",
"300 188 CURVE SMOOTH",
"350 188 OFFCURVE",
"410 135 OFFCURVE",
"410 35 CURVE SMOOTH",
"410 -28 OFFCURVE",
"390 -52 OFFCURVE",
"270 -52 CURVE SMOOTH",
"140 -52 LINE",
"140 -130 LINE",
"288 -130 LINE SMOOTH",
"418 -130 OFFCURVE",
"449 -58 OFFCURVE",
"449 35 CURVE SMOOTH",
"449 178 OFFCURVE",
"380 273 OFFCURVE",
"307 273 CURVE SMOOTH",
"243 273 OFFCURVE",
"171 192 OFFCURVE",
"171 108 CURVE SMOOTH",
"171 38 OFFCURVE",
"221 -10 OFFCURVE",
"299 -10 CURVE SMOOTH"
);
}
);
};
layerId = "5737A387-D58B-44AF-B5D8-46C6A64E18DE";
paths = (
{
closed = 1;
nodes = (
"298 376 LINE",
"285 400 OFFCURVE",
"271 415 OFFCURVE",
"251 425 CURVE",
"194 378 LINE",
"207 352 OFFCURVE",
"217 344 OFFCURVE",
"241 329 CURVE"
);
},
{
closed = 1;
nodes = (
"418 376 LINE",
"405 400 OFFCURVE",
"391 415 OFFCURVE",
"371 425 CURVE",
"314 378 LINE",
"327 352 OFFCURVE",
"337 344 OFFCURVE",
"361 329 CURVE"
);
},
{
closed = 1;
nodes = (
"236 275 OFFCURVE",
"180 194 OFFCURVE",
"180 110 CURVE SMOOTH",
"180 23 OFFCURVE",
"229 -10 OFFCURVE",
"284 -10 CURVE SMOOTH",
"329 -10 OFFCURVE",
"355 12 OFFCURVE",
"384 50 CURVE",
"384 80 LINE",
"347 67 OFFCURVE",
"319 59 OFFCURVE",
"287 59 CURVE SMOOTH",
"247 59 OFFCURVE",
"219 71 OFFCURVE",
"219 122 CURVE SMOOTH",
"219 175 OFFCURVE",
"253 190 OFFCURVE",
"281 190 CURVE SMOOTH",
"334 190 OFFCURVE",
"380 137 OFFCURVE",
"380 18 CURVE SMOOTH",
"380 -36 OFFCURVE",
"370 -112 OFFCURVE",
"220 -112 CURVE SMOOTH",
"120 -112 OFFCURVE",
"52 -102 OFFCURVE",
"52 -10 CURVE SMOOTH",
"52 25 OFFCURVE",
"58 56 OFFCURVE",
"60 80 CURVE",
"53 85 OFFCURVE",
"46 85 OFFCURVE",
"39 80 CURVE",
"19 25 OFFCURVE",
"10 -6 OFFCURVE",
"10 -36 CURVE SMOOTH",
"10 -134 OFFCURVE",
"98 -186 OFFCURVE",
"225 -186 CURVE SMOOTH",
"348 -186 OFFCURVE",
"419 -106 OFFCURVE",
"419 42 CURVE SMOOTH",
"419 180 OFFCURVE",
"364 275 OFFCURVE",
"297 275 CURVE SMOOTH"
);
}
);
width = 449;
},
{
associatedMasterId = "5737A387-D58B-44AF-B5D8-46C6A64E18DE";
background = {
paths = (
{
closed = 1;
nodes = (
"258 275 OFFCURVE",
"220 194 OFFCURVE",
"220 120 CURVE SMOOTH",
"220 23 OFFCURVE",
"269 -10 OFFCURVE",
"320 -10 CURVE SMOOTH",
"369 -10 OFFCURVE",
"395 12 OFFCURVE",
"424 60 CURVE",
"424 80 LINE",
"387 67 OFFCURVE",
"359 59 OFFCURVE",
"322 59 CURVE SMOOTH",
"287 59 OFFCURVE",
"259 71 OFFCURVE",
"259 109 CURVE SMOOTH",
"259 158 OFFCURVE",
"280 190 OFFCURVE",
"329 190 CURVE SMOOTH",
"380 190 OFFCURVE",
"420 137 OFFCURVE",
"420 37 CURVE SMOOTH",
"420 -68 OFFCURVE",
"420 -112 OFFCURVE",
"280 -112 CURVE SMOOTH",
"156 -112 OFFCURVE",
"72 -96 OFFCURVE",
"72 48 CURVE SMOOTH",
"72 85 OFFCURVE",
"82 116 OFFCURVE",
"94 140 CURVE",
"87 145 OFFCURVE",
"80 145 OFFCURVE",
"73 140 CURVE",
"43 85 OFFCURVE",
"30 54 OFFCURVE",
"30 24 CURVE SMOOTH",
"30 -113 OFFCURVE",
"136 -186 OFFCURVE",
"265 -186 CURVE SMOOTH",
"388 -186 OFFCURVE",
"459 -90 OFFCURVE",
"459 37 CURVE SMOOTH",
"459 180 OFFCURVE",
"410 275 OFFCURVE",
"328 275 CURVE SMOOTH"
);
}
);
};
layerId = "6D22968A-F6EF-46E3-95A7-9F7C1428D790";
name = "Apr 1 20, 13:15";
paths = (
{
closed = 1;
nodes = (
"258 275 OFFCURVE",
"220 194 OFFCURVE",
"220 120 CURVE SMOOTH",
"220 23 OFFCURVE",
"269 -10 OFFCURVE",
"331 -10 CURVE SMOOTH",
"376 -10 OFFCURVE",
"410 12 OFFCURVE",
"433 60 CURVE",
"424 80 LINE",
"387 67 OFFCURVE",
"377 60 OFFCURVE",
"338 59 CURVE SMOOTH",
"295 58 OFFCURVE",
"259 71 OFFCURVE",
"259 121 CURVE SMOOTH",
"259 158 OFFCURVE",
"280 190 OFFCURVE",
"329 190 CURVE SMOOTH",
"380 190 OFFCURVE",
"420 137 OFFCURVE",
"420 37 CURVE SMOOTH",
"420 -68 OFFCURVE",
"395 -112 OFFCURVE",
"259 -112 CURVE SMOOTH",
"136 -112 OFFCURVE",
"85 -76 OFFCURVE",
"85 16 CURVE SMOOTH",
"85 50 OFFCURVE",
"92 91 OFFCURVE",
"104 140 CURVE",
"97 145 OFFCURVE",
"90 145 OFFCURVE",
"79 145 CURVE",
"55 77 OFFCURVE",
"43 23 OFFCURVE",
"43 -22 CURVE SMOOTH",
"43 -130 OFFCURVE",
"117 -186 OFFCURVE",
"238 -186 CURVE SMOOTH",
"388 -186 OFFCURVE",
"459 -90 OFFCURVE",
"459 37 CURVE SMOOTH",
"459 180 OFFCURVE",
"410 275 OFFCURVE",
"328 275 CURVE SMOOTH"
);
}
);
width = 489;
}
);
unicode = 0642;
},
{
glyphname = "qaf-ar.fina";
lastChange = "2020-04-03 11:19:09 +0000";
layers = (
{
background = {
paths = (
{
closed = 1;
nodes = (
"298 376 LINE",
"285 400 OFFCURVE",
"271 415 OFFCURVE",
"251 425 CURVE",
"194 378 LINE",
"207 352 OFFCURVE",
"217 344 OFFCURVE",
"241 329 CURVE"
);
},
{
closed = 1;
nodes = (
"418 376 LINE",
"405 400 OFFCURVE",
"391 415 OFFCURVE",
"371 425 CURVE",
"314 378 LINE",
"327 352 OFFCURVE",
"337 344 OFFCURVE",
"361 329 CURVE"
);
},
{
closed = 1;
nodes = (
"236 275 OFFCURVE",
"180 194 OFFCURVE",
"180 110 CURVE SMOOTH",
"180 23 OFFCURVE",
"229 -10 OFFCURVE",
"284 -10 CURVE SMOOTH",
"329 -10 OFFCURVE",
"355 12 OFFCURVE",
"384 50 CURVE",
"384 80 LINE",
"347 67 OFFCURVE",
"319 59 OFFCURVE",
"287 59 CURVE SMOOTH",
"247 59 OFFCURVE",
"219 71 OFFCURVE",
"219 122 CURVE SMOOTH",
"219 175 OFFCURVE",
"253 190 OFFCURVE",
"281 190 CURVE SMOOTH",
"334 190 OFFCURVE",
"380 137 OFFCURVE",
"380 18 CURVE SMOOTH",
"380 -36 OFFCURVE",
"370 -112 OFFCURVE",
"220 -112 CURVE SMOOTH",
"120 -112 OFFCURVE",
"52 -102 OFFCURVE",
"52 -10 CURVE SMOOTH",
"52 25 OFFCURVE",
"58 56 OFFCURVE",
"60 80 CURVE",
"53 85 OFFCURVE",
"46 85 OFFCURVE",
"39 80 CURVE",
"19 25 OFFCURVE",
"10 -6 OFFCURVE",
"10 -36 CURVE SMOOTH",
"10 -134 OFFCURVE",
"98 -186 OFFCURVE",
"225 -186 CURVE SMOOTH",
"348 -186 OFFCURVE",
"419 -106 OFFCURVE",
"419 42 CURVE SMOOTH",
"419 180 OFFCURVE",
"364 275 OFFCURVE",
"297 275 CURVE SMOOTH"
);
}
);
};
hints = (
{
origin = "{2, 6}";
target = "{2, 7}";
type = Cap;
name = _cap.joint;
}
);
layerId = "5737A387-D58B-44AF-B5D8-46C6A64E18DE";
paths = (
{
closed = 1;
nodes = (
"298 376 LINE",
"285 400 OFFCURVE",
"271 415 OFFCURVE",
"251 425 CURVE",
"194 378 LINE",
"207 352 OFFCURVE",
"217 344 OFFCURVE",
"241 329 CURVE"
);
},
{
closed = 1;
nodes = (
"418 376 LINE",
"405 400 OFFCURVE",
"391 415 OFFCURVE",
"371 425 CURVE",
"314 378 LINE",
"327 352 OFFCURVE",
"337 344 OFFCURVE",
"361 329 CURVE"
);
},
{
closed = 1;
nodes = (
"232 275 OFFCURVE",
"180 184 OFFCURVE",
"180 103 CURVE SMOOTH",
"180 23 OFFCURVE",
"249 -10 OFFCURVE",
"380 -10 CURVE SMOOTH",
"501 -10 LINE",
"501 68 LINE",
"422 68 LINE SMOOTH",
"247 68 OFFCURVE",
"219 71 OFFCURVE",
"219 118 CURVE SMOOTH",
"219 175 OFFCURVE",
"247 191 OFFCURVE",
"281 191 CURVE SMOOTH",
"328 191 OFFCURVE",
"380 137 OFFCURVE",
"380 37 CURVE SMOOTH",
"380 -38 OFFCURVE",
"360 -112 OFFCURVE",
"240 -112 CURVE SMOOTH",
"110 -112 OFFCURVE",
"52 -102 OFFCURVE",
"52 -12 CURVE SMOOTH",
"52 25 OFFCURVE",
"56 56 OFFCURVE",
"61 80 CURVE",
"54 85 OFFCURVE",
"47 85 OFFCURVE",
"40 80 CURVE",
"17 25 OFFCURVE",
"10 -6 OFFCURVE",
"10 -36 CURVE SMOOTH",
"10 -134 OFFCURVE",
"98 -186 OFFCURVE",
"215 -186 CURVE SMOOTH",
"388 -186 OFFCURVE",
"419 -56 OFFCURVE",
"419 37 CURVE SMOOTH",
"419 180 OFFCURVE",
"366 275 OFFCURVE",
"297 275 CURVE SMOOTH"
);
}
);
width = 501;
}
);
unicode = FED6;
},
{
glyphname = "qaf-ar.medi";
lastChange = "2020-04-01 12:08:03 +0000";
layers = (
{
guideLines = (
{
position = "{205, 52}";
}
);
hints = (
{
origin = "{2, 6}";
type = Cap;
name = _cap.joint;
},
{
origin = "{2, 21}";
target = "{2, 22}";
type = Cap;
name = _cap.joint;
}
);
layerId = "5737A387-D58B-44AF-B5D8-46C6A64E18DE";
paths = (
{
closed = 1;
nodes = (
"164 426 LINE",
"151 450 OFFCURVE",
"137 465 OFFCURVE",
"117 475 CURVE",
"60 428 LINE",
"73 402 OFFCURVE",
"83 394 OFFCURVE",
"107 379 CURVE"
);
},
{
closed = 1;
nodes = (
"284 426 LINE",
"271 450 OFFCURVE",
"257 465 OFFCURVE",
"237 475 CURVE",
"180 428 LINE",
"193 402 OFFCURVE",
"203 394 OFFCURVE",
"227 379 CURVE"
);
},
{
closed = 1;
nodes = (
"118 325 OFFCURVE",
"55 255 OFFCURVE",
"55 190 CURVE SMOOTH",
"55 83 OFFCURVE",
"135 -10 OFFCURVE",
"286 -10 CURVE SMOOTH",
"347 -10 LINE",
"347 68 LINE",
"278 68 LINE SMOOTH",
"113 68 OFFCURVE",
"94 131 OFFCURVE",
"94 188 CURVE SMOOTH",
"94 225 OFFCURVE",
"135 242 OFFCURVE",
"176 242 CURVE SMOOTH",
"216 242 OFFCURVE",
"238 227 OFFCURVE",
"238 167 CURVE SMOOTH",
"238 146 OFFCURVE",
"223 68 OFFCURVE",
"63 68 CURVE SMOOTH",
"0 68 LINE",
"0 -10 LINE",
"10 -10 LINE SMOOTH",
"187 -10 OFFCURVE",
"277 86 OFFCURVE",
"277 167 CURVE SMOOTH",
"277 270 OFFCURVE",
"246 325 OFFCURVE",
"183 325 CURVE SMOOTH"
);
}
);
width = 347;
},
{
associatedMasterId = "5737A387-D58B-44AF-B5D8-46C6A64E18DE";
background = {
hints = (
{
origin = "{0, 6}";
type = Cap;
name = _cap.joint;
},
{
origin = "{0, 21}";
type = Cap;
name = _cap.joint;
}
);
paths = (
{
closed = 1;
nodes = (
"118 325 OFFCURVE",
"55 255 OFFCURVE",
"55 190 CURVE SMOOTH",
"55 83 OFFCURVE",
"135 -10 OFFCURVE",
"286 -10 CURVE SMOOTH",
"347 -10 LINE",
"347 68 LINE",
"278 68 LINE SMOOTH",
"113 68 OFFCURVE",
"94 131 OFFCURVE",
"94 188 CURVE SMOOTH",
"94 225 OFFCURVE",
"135 242 OFFCURVE",
"176 242 CURVE SMOOTH",
"216 242 OFFCURVE",
"238 227 OFFCURVE",
"238 167 CURVE SMOOTH",
"238 146 OFFCURVE",
"223 68 OFFCURVE",
"63 68 CURVE SMOOTH",
"0 68 LINE",
"0 -10 LINE",
"10 -10 LINE SMOOTH",
"187 -10 OFFCURVE",
"277 86 OFFCURVE",
"277 167 CURVE SMOOTH",
"277 270 OFFCURVE",
"246 325 OFFCURVE",
"183 325 CURVE SMOOTH"
);
}
);
};
guideLines = (
{
position = "{205, 52}";
}
);
hints = (
{
origin = "{0, 6}";
type = Cap;
name = _cap.joint;
},
{
origin = "{0, 21}";
target = "{0, 22}";
type = Cap;
name = _cap.joint;
}
);
layerId = "B8EAF7A2-F310-473B-8217-7FA4D32872C7";
name = "Apr 1 20, 13:06";
paths = (
{
closed = 1;
nodes = (
"93 325 OFFCURVE",
"55 255 OFFCURVE",
"55 190 CURVE SMOOTH",
"55 83 OFFCURVE",
"135 -10 OFFCURVE",
"286 -10 CURVE SMOOTH",
"347 -10 LINE",
"347 68 LINE",
"320 68 LINE SMOOTH",
"152 68 OFFCURVE",
"94 131 OFFCURVE",
"94 175 CURVE SMOOTH",
"94 225 OFFCURVE",
"135 242 OFFCURVE",
"163 242 CURVE SMOOTH",
"211 242 OFFCURVE",
"238 209 OFFCURVE",
"238 180 CURVE SMOOTH",
"238 146 OFFCURVE",
"187 68 OFFCURVE",
"32 68 CURVE SMOOTH",
"0 68 LINE",
"0 -10 LINE",
"10 -10 LINE SMOOTH",
"187 -10 OFFCURVE",
"277 86 OFFCURVE",
"277 175 CURVE SMOOTH",
"277 253 OFFCURVE",
"246 325 OFFCURVE",
"163 325 CURVE SMOOTH"
);
}
);
width = 347;
}
);
unicode = FED8;
},
{
color = 3;
glyphname = "qaf-ar.init";
lastChange = "2020-03-30 11:17:11 +0000";
layers = (
{
hints = (
{
origin = "{0, 19}";
type = Cap;
name = _cap.joint;
}
);
layerId = "5737A387-D58B-44AF-B5D8-46C6A64E18DE";
paths = (
{
closed = 1;
nodes = (
"201 110 OFFCURVE",
"230 141 OFFCURVE",
"271 186 CURVE",
"271 200 LINE",
"232 190 OFFCURVE",
"193 184 OFFCURVE",
"164 184 CURVE SMOOTH",
"137 184 OFFCURVE",
"90 200 OFFCURVE",
"90 248 CURVE SMOOTH",
"90 293 OFFCURVE",
"130 312 OFFCURVE",
"159 312 CURVE SMOOTH",
"210 312 OFFCURVE",
"270 255 OFFCURVE",
"270 155 CURVE SMOOTH",
"270 92 OFFCURVE",
"250 68 OFFCURVE",
"130 68 CURVE SMOOTH",
"0 68 LINE",
"0 -10 LINE",
"148 -10 LINE SMOOTH",
"278 -10 OFFCURVE",
"309 62 OFFCURVE",
"309 155 CURVE SMOOTH",
"309 298 OFFCURVE",
"250 393 OFFCURVE",
"177 393 CURVE SMOOTH",
"113 393 OFFCURVE",
"51 312 OFFCURVE",
"51 228 CURVE SMOOTH",
"51 158 OFFCURVE",
"101 110 OFFCURVE",
"159 110 CURVE SMOOTH"
);
},
{
closed = 1;
nodes = (
"77 490 OFFCURVE",
"87 482 OFFCURVE",
"111 467 CURVE",
"168 514 LINE",
"155 538 OFFCURVE",
"141 553 OFFCURVE",
"121 563 CURVE",
"64 516 LINE"
);
},
{
closed = 1;
nodes = (
"197 490 OFFCURVE",
"207 482 OFFCURVE",
"231 467 CURVE",
"288 514 LINE",
"275 538 OFFCURVE",
"261 553 OFFCURVE",
"241 563 CURVE",
"184 516 LINE"
);
}
);
width = 339;
},
{
associatedMasterId = "5737A387-D58B-44AF-B5D8-46C6A64E18DE";
layerId = "4A76E860-DCDE-4C72-951C-B1E19B9B607D";
name = "Jan 23 20, 17:24";
paths = (
{
closed = 1;
nodes = (
"203 306 OFFCURVE",
"228 230 OFFCURVE",
"228 152 CURVE",
"188 119 LINE",
"-10 119 LINE",
"-10 49 LINE",
"108 49 LINE SMOOTH",
"218 49 OFFCURVE",
"280 97 OFFCURVE",
"277 208 CURVE SMOOTH",
"275 290 OFFCURVE",
"228 357 OFFCURVE",
"161 357 CURVE SMOOTH",
"87 357 OFFCURVE",
"51 298 OFFCURVE",
"51 246 CURVE SMOOTH",
"51 187 OFFCURVE",
"75 168 OFFCURVE",
"149 168 CURVE SMOOTH",
"207 168 LINE",
"227 211 LINE",
"217 238 LINE",
"85 239 LINE",
"111 306 LINE"
);
},
{
closed = 1;
nodes = (
"76 414 OFFCURVE",
"85 407 OFFCURVE",
"106 393 CURVE",
"158 436 LINE",
"146 458 OFFCURVE",
"134 472 OFFCURVE",
"116 481 CURVE",
"64 438 LINE"
);
},
{
closed = 1;
nodes = (
"176 414 OFFCURVE",
"185 407 OFFCURVE",
"206 393 CURVE",
"258 436 LINE",
"246 458 OFFCURVE",
"234 472 OFFCURVE",
"216 481 CURVE",
"164 438 LINE"
);
}
);
width = 298;
}
);
unicode = FED7;
},
{
color = 5;
glyphname = "lam-ar";
lastChange = "2020-04-03 15:46:24 +0000";
layers = (
{
layerId = "5737A387-D58B-44AF-B5D8-46C6A64E18DE";
paths = (
{
closed = 1;
nodes = (
"382 620 OFFCURVE",
"362 595 OFFCURVE",
"347 569 CURVE",
"358 390 OFFCURVE",
"367 184 OFFCURVE",
"367 64 CURVE SMOOTH",
"367 25 OFFCURVE",
"356 -32 OFFCURVE",
"270 -32 CURVE SMOOTH",
"170 -32 OFFCURVE",
"102 -22 OFFCURVE",
"102 68 CURVE SMOOTH",
"102 105 OFFCURVE",
"105 136 OFFCURVE",
"110 160 CURVE",
"103 165 OFFCURVE",
"96 165 OFFCURVE",
"89 160 CURVE",
"69 105 OFFCURVE",
"60 74 OFFCURVE",
"60 44 CURVE SMOOTH",
"60 -54 OFFCURVE",
"138 -106 OFFCURVE",
"222 -106 CURVE SMOOTH",
"366 -106 OFFCURVE",
"415 24 OFFCURVE",
"415 100 CURVE SMOOTH",
"415 290 OFFCURVE",
"415 380 OFFCURVE",
"419 606 CURVE",
"416 613 OFFCURVE",
"412 617 OFFCURVE",
"405 620 CURVE"
);
}
);
width = 454;
},
{
associatedMasterId = "5737A387-D58B-44AF-B5D8-46C6A64E18DE";
layerId = "973123EE-DAC8-40B6-A552-F7777EF6A082";
name = "Apr 3 20, 16:43";
paths = (
{
closed = 1;
nodes = (
"414 620 OFFCURVE",
"394 595 OFFCURVE",
"379 569 CURVE",
"390 390 OFFCURVE",
"401 181 OFFCURVE",
"401 61 CURVE SMOOTH",
"401 -17 OFFCURVE",
"383 -22 OFFCURVE",
"280 -22 CURVE SMOOTH",
"170 -22 OFFCURVE",
"102 -12 OFFCURVE",
"102 78 CURVE SMOOTH",
"102 115 OFFCURVE",
"112 146 OFFCURVE",
"124 170 CURVE",
"117 175 OFFCURVE",
"110 175 OFFCURVE",
"103 170 CURVE",
"73 115 OFFCURVE",
"60 84 OFFCURVE",
"60 54 CURVE SMOOTH",
"60 -44 OFFCURVE",
"158 -96 OFFCURVE",
"252 -96 CURVE SMOOTH",
"376 -96 OFFCURVE",
"447 -26 OFFCURVE",
"447 100 CURVE SMOOTH",
"447 290 OFFCURVE",
"447 380 OFFCURVE",
"451 606 CURVE",
"448 613 OFFCURVE",
"444 617 OFFCURVE",
"437 620 CURVE"
);
}
);
width = 486;
}
);
leftMetricsKey = "alef-ar";
unicode = 0644;
},
{
color = 3;
glyphname = "lam-ar.fina";
lastChange = "2020-04-03 15:51:13 +0000";
layers = (
{
hints = (
{
origin = "{1, 7}";
type = Cap;
name = _cap.joint;
}
);
layerId = "5737A387-D58B-44AF-B5D8-46C6A64E18DE";
paths = (
{
closed = 1;
nodes = (
"382 620 OFFCURVE",
"362 595 OFFCURVE",
"347 569 CURVE",
"358 390 OFFCURVE",
"367 184 OFFCURVE",
"367 64 CURVE SMOOTH",
"367 25 OFFCURVE",
"356 -32 OFFCURVE",
"270 -32 CURVE SMOOTH",
"170 -32 OFFCURVE",
"102 -22 OFFCURVE",
"102 68 CURVE SMOOTH",
"102 105 OFFCURVE",
"105 136 OFFCURVE",
"110 160 CURVE",
"103 165 OFFCURVE",
"96 165 OFFCURVE",
"89 160 CURVE",
"69 105 OFFCURVE",
"60 74 OFFCURVE",
"60 44 CURVE SMOOTH",
"60 -54 OFFCURVE",
"138 -106 OFFCURVE",
"222 -106 CURVE SMOOTH",
"366 -106 OFFCURVE",
"415 24 OFFCURVE",
"415 100 CURVE SMOOTH",
"415 290 OFFCURVE",
"415 380 OFFCURVE",
"419 606 CURVE",
"416 613 OFFCURVE",
"412 617 OFFCURVE",
"405 620 CURVE"
);
},
{
closed = 1;
nodes = (
"501 68 LINE",
"466 68 OFFCURVE",
"434 70 OFFCURVE",
"410 80 CURVE",
"378 29 LINE",
"426 0 OFFCURVE",
"461 -10 OFFCURVE",
"501 -10 CURVE"
);
}
);
width = 501;
},
{
associatedMasterId = "5737A387-D58B-44AF-B5D8-46C6A64E18DE";
hints = (
{
origin = "{1, 6}";
target = "{1, 7}";
type = Cap;
name = _cap.joint;
}
);
layerId = "0C918E3B-1637-49F4-85CD-9AE69D493F75";
name = "Apr 3 20, 16:50";
paths = (
{
closed = 1;
nodes = (
"374 620 OFFCURVE",
"354 595 OFFCURVE",
"339 569 CURVE",
"350 390 OFFCURVE",
"361 181 OFFCURVE",
"361 61 CURVE SMOOTH",
"361 -17 OFFCURVE",
"343 -22 OFFCURVE",
"240 -22 CURVE SMOOTH",
"130 -22 OFFCURVE",
"62 -12 OFFCURVE",
"62 78 CURVE SMOOTH",
"62 115 OFFCURVE",
"72 146 OFFCURVE",
"84 170 CURVE",
"77 175 OFFCURVE",
"70 175 OFFCURVE",
"63 170 CURVE",
"33 115 OFFCURVE",
"20 84 OFFCURVE",
"20 54 CURVE SMOOTH",
"20 -44 OFFCURVE",
"118 -96 OFFCURVE",
"212 -96 CURVE SMOOTH",
"336 -96 OFFCURVE",
"407 -26 OFFCURVE",
"407 100 CURVE SMOOTH",
"407 290 OFFCURVE",
"407 380 OFFCURVE",
"411 606 CURVE",
"408 613 OFFCURVE",
"404 617 OFFCURVE",
"397 620 CURVE"
);
},
{
closed = 1;
nodes = (
"442 68 OFFCURVE",
"420 79 OFFCURVE",
"396 100 CURVE",
"396 83 LINE",
"414 12 OFFCURVE",
"437 -10 OFFCURVE",
"497 -10 CURVE",
"497 68 LINE"
);
}
);
width = 497;
}
);
rightMetricsKey = "=-46";
unicode = FEDE;
},
{
color = 3;
glyphname = "lam-ar.medi";
lastChange = "2020-04-03 16:00:14 +0000";
layers = (
{
hints = (
{
origin = "{0, 18}";
target = "{0, 0}";
type = Cap;
name = _cap.joint;
},
{
origin = "{1, 7}";
type = Cap;
name = _cap.joint;
}
);
layerId = "5737A387-D58B-44AF-B5D8-46C6A64E18DE";
paths = (
{
closed = 1;
nodes = (
"0 -10 LINE",
"97 -10 OFFCURVE",
"152 28 OFFCURVE",
"150 100 CURVE SMOOTH",
"148 274 OFFCURVE",
"149 402 OFFCURVE",
"155 606 CURVE",
"152 613 OFFCURVE",
"148 617 OFFCURVE",
"141 620 CURVE",
"118 620 OFFCURVE",
"98 595 OFFCURVE",
"83 569 CURVE",
"94 388 OFFCURVE",
"96 211 OFFCURVE",
"92 80 CURVE",
"75 72 OFFCURVE",
"58 68 OFFCURVE",
"0 68 CURVE"
);
},
{
closed = 1;
nodes = (
"251 68 LINE",
"216 68 OFFCURVE",
"184 70 OFFCURVE",
"140 84 CURVE",
"108 33 LINE",
"176 0 OFFCURVE",
"211 -10 OFFCURVE",
"251 -10 CURVE"
);
}
);
width = 251;
}
);
leftMetricsKey = "=-46";
rightMetricsKey = "=-46";
unicode = FEE0;
},
{
color = 5;
glyphname = "lam-ar.init";
lastChange = "2020-04-03 16:00:24 +0000";
layers = (
{
hints = (
{
origin = "{0, 18}";
target = "{0, 0}";
type = Cap;
name = _cap.joint;
}
);
layerId = "5737A387-D58B-44AF-B5D8-46C6A64E18DE";
paths = (
{
closed = 1;
nodes = (
"0 -10 LINE",
"77 -10 OFFCURVE",
"132 28 OFFCURVE",
"130 100 CURVE SMOOTH",
"128 274 OFFCURVE",
"129 402 OFFCURVE",
"135 606 CURVE",
"132 613 OFFCURVE",
"128 617 OFFCURVE",
"121 620 CURVE",
"98 620 OFFCURVE",
"78 595 OFFCURVE",
"63 569 CURVE",
"74 388 OFFCURVE",
"76 211 OFFCURVE",
"72 80 CURVE",
"55 72 OFFCURVE",
"38 68 OFFCURVE",
"0 68 CURVE"
);
}
);
width = 195;
}
);
leftMetricsKey = "=-46";
rightMetricsKey = "=alef-ar";
unicode = FEDF;
},
{
color = 3;
glyphname = "meem-ar.medi";
lastChange = "2020-04-01 12:22:05 +0000";
layers = (
{
background = {
hints = (
{
origin = "{0, 16}";
type = Cap;
name = _cap.joint;
},
{
origin = "{1, 7}";
type = Cap;
name = _cap.joint;
}
);
paths = (
{
closed = 1;
nodes = (
"241 -10 OFFCURVE",
"280 15 OFFCURVE",
"321 56 CURVE",
"321 70 LINE",
"282 60 OFFCURVE",
"243 54 OFFCURVE",
"204 54 CURVE SMOOTH",
"167 54 OFFCURVE",
"111 70 OFFCURVE",
"111 96 CURVE SMOOTH",
"111 143 OFFCURVE",
"150 192 OFFCURVE",
"210 192 CURVE SMOOTH",
"280 192 OFFCURVE",
"257 -10 OFFCURVE",
"420 -10 CURVE SMOOTH",
"430 -10 LINE",
"430 68 LINE",
"408 68 LINE SMOOTH",
"323 68 OFFCURVE",
"314 273 OFFCURVE",
"217 273 CURVE SMOOTH",
"143 273 OFFCURVE",
"71 132 OFFCURVE",
"71 68 CURVE SMOOTH",
"71 18 OFFCURVE",
"111 -10 OFFCURVE",
"189 -10 CURVE SMOOTH"
);
},
{
closed = 1;
nodes = (
"0 -10 LINE",
"40 -10 OFFCURVE",
"63 12 OFFCURVE",
"81 83 CURVE",
"81 100 LINE",
"54 77 OFFCURVE",
"27 68 OFFCURVE",
"0 68 CURVE"
);
}
);
};
guideLines = (
{
position = "{176, 52}";
},
{
angle = 180;
position = "{178, 122}";
},
{
position = "{588, 273}";
}
);
layerId = "5737A387-D58B-44AF-B5D8-46C6A64E18DE";
paths = (
{
closed = 1;
nodes = (
"408 68 LINE SMOOTH",
"323 68 OFFCURVE",
"326 273 OFFCURVE",
"204 273 CURVE SMOOTH",
"142 273 OFFCURVE",
"102 225 OFFCURVE",
"78 134 CURVE SMOOTH",
"61 68 OFFCURVE",
"26 68 OFFCURVE",
"0 68 CURVE SMOOTH",
"-26 68 OFFCURVE",
"-46 50 OFFCURVE",
"-46 29 CURVE SMOOTH",
"-46 8 OFFCURVE",
"-26 -10 OFFCURVE",
"0 -10 CURVE SMOOTH",
"37 -10 OFFCURVE",
"74 16 OFFCURVE",
"95 75 CURVE",
"71 62 LINE",
"88 16 OFFCURVE",
"114 -10 OFFCURVE",
"189 -10 CURVE SMOOTH",
"241 -10 OFFCURVE",
"295 12 OFFCURVE",
"336 64 CURVE",
"298 61 LINE",
"321 23 OFFCURVE",
"355 -10 OFFCURVE",
"420 -10 CURVE SMOOTH",
"430 -10 LINE SMOOTH",
"456 -10 OFFCURVE",
"476 8 OFFCURVE",
"476 29 CURVE SMOOTH",
"476 50 OFFCURVE",
"456 68 OFFCURVE",
"430 68 CURVE SMOOTH"
);
},
{
closed = 1;
nodes = (
"167 54 OFFCURVE",
"111 70 OFFCURVE",
"111 106 CURVE SMOOTH",
"111 143 OFFCURVE",
"150 192 OFFCURVE",
"189 192 CURVE SMOOTH",
"259 192 OFFCURVE",
"266 104 OFFCURVE",
"310 44 CURVE",
"325 99 LINE",
"275 68 OFFCURVE",
"255 54 OFFCURVE",
"197 54 CURVE SMOOTH"
);
}
);
width = 430;
},
{
associatedMasterId = "5737A387-D58B-44AF-B5D8-46C6A64E18DE";
hints = (
{
origin = "{0, 16}";
target = "{0, 17}";
type = Cap;
name = _cap.joint;
},
{
origin = "{1, 7}";
target = "{1, 0}";
type = Cap;
name = _cap.joint;
}
);
layerId = "1A579A0E-A413-4B35-B907-30EE4DA191F5";
name = "Apr 1 20, 13:19";
paths = (
{
closed = 1;
nodes = (
"241 -10 OFFCURVE",
"280 15 OFFCURVE",
"321 56 CURVE",
"321 70 LINE",
"282 60 OFFCURVE",
"243 54 OFFCURVE",
"204 54 CURVE SMOOTH",
"167 54 OFFCURVE",
"111 70 OFFCURVE",
"111 96 CURVE SMOOTH",
"111 143 OFFCURVE",
"150 192 OFFCURVE",
"210 192 CURVE SMOOTH",
"280 192 OFFCURVE",
"257 -10 OFFCURVE",
"420 -10 CURVE SMOOTH",
"430 -10 LINE",
"430 68 LINE",
"408 68 LINE SMOOTH",
"323 68 OFFCURVE",
"314 273 OFFCURVE",
"217 273 CURVE SMOOTH",
"143 273 OFFCURVE",
"71 132 OFFCURVE",
"71 68 CURVE SMOOTH",
"71 18 OFFCURVE",
"111 -10 OFFCURVE",
"189 -10 CURVE SMOOTH"
);
},
{
closed = 1;
nodes = (
"0 -10 LINE",
"40 -10 OFFCURVE",
"63 12 OFFCURVE",
"81 83 CURVE",
"81 100 LINE",
"54 77 OFFCURVE",
"27 68 OFFCURVE",
"0 68 CURVE"
);
}
);
width = 430;
}
);
unicode = FEE4;
},
{
glyphname = "lam_alef-ar";
lastChange = "2020-03-30 13:46:17 +0000";
layers = (
{
layerId = "5737A387-D58B-44AF-B5D8-46C6A64E18DE";
paths = (
{
closed = 1;
nodes = (
"82 480 OFFCURVE",
"72 483 OFFCURVE",
"63 482 CURVE",
"45 473 OFFCURVE",
"36 465 OFFCURVE",
"30 437 CURVE",
"177 297 OFFCURVE",
"322 170 OFFCURVE",
"322 107 CURVE SMOOTH",
"322 68 OFFCURVE",
"278 53 OFFCURVE",
"215 53 CURVE SMOOTH",
"161 53 OFFCURVE",
"130 67 OFFCURVE",
"113 80 CURVE",
"283 165 OFFCURVE",
"361 242 OFFCURVE",
"367 606 CURVE",
"364 613 OFFCURVE",
"360 617 OFFCURVE",
"353 620 CURVE",
"325 616 OFFCURVE",
"310 594 OFFCURVE",
"300 573 CURVE",
"311 231 OFFCURVE",
"223 175 OFFCURVE",
"59 100 CURVE",
"59 28 OFFCURVE",
"78 -10 OFFCURVE",
"225 -10 CURVE SMOOTH",
"322 -10 OFFCURVE",
"364 28 OFFCURVE",
"364 80 CURVE SMOOTH",
"364 224 OFFCURVE",
"232 316 OFFCURVE",
"88 475 CURVE"
);
}
);
width = 407;
}
);
unicode = FEFB;
},
{
glyphname = "lam_alef-ar.fina";
lastChange = "2020-03-30 13:45:14 +0000";
layers = (
{
hints = (
{
origin = "{0, 17}";
type = Cap;
name = _cap.joint;
}
);
layerId = "5737A387-D58B-44AF-B5D8-46C6A64E18DE";
paths = (
{
closed = 1;
nodes = (
"442 68 OFFCURVE",
"425 72 OFFCURVE",
"408 80 CURVE",
"406 239 OFFCURVE",
"409 422 OFFCURVE",
"414 606 CURVE",
"411 613 OFFCURVE",
"407 617 OFFCURVE",
"400 620 CURVE",
"377 610 OFFCURVE",
"364 597 OFFCURVE",
"353 569 CURVE",
"361 432 OFFCURVE",
"354 238 OFFCURVE",
"350 100 CURVE SMOOTH",
"348 28 OFFCURVE",
"403 -10 OFFCURVE",
"480 -10 CURVE",
"480 68 LINE"
);
},
{
closed = 1;
nodes = (
"353 569 LINE",
"279 126 OFFCURVE",
"267 66 OFFCURVE",
"190 66 CURVE SMOOTH",
"166 66 OFFCURVE",
"130 69 OFFCURVE",
"83 84 CURVE",
"79 69 OFFCURVE",
"80 45 OFFCURVE",
"83 31 CURVE",
"122 4 OFFCURVE",
"151 -10 OFFCURVE",
"188 -10 CURVE SMOOTH",
"229 -10 OFFCURVE",
"263 28 OFFCURVE",
"295 124 CURVE SMOOTH",
"325 215 OFFCURVE",
"351 358 OFFCURVE",
"378 569 CURVE"
);
},
{
closed = 1;
nodes = (
"297 157 LINE",
"251 304 OFFCURVE",
"203 388 OFFCURVE",
"98 515 CURVE",
"92 520 OFFCURVE",
"82 523 OFFCURVE",
"73 522 CURVE",
"49 508 OFFCURVE",
"38 501 OFFCURVE",
"38 468 CURVE",
"155 356 OFFCURVE",
"221 254 OFFCURVE",
"272 145 CURVE"
);
}
);
width = 480;
}
);
rightMetricsKey = "=-46";
unicode = FEFC;
},
{
glyphname = "hamzaabove-ar";
lastChange = "2020-03-30 10:45:35 +0000";
layers = (
{
layerId = "5737A387-D58B-44AF-B5D8-46C6A64E18DE";
paths = (
{
closed = 1;
nodes = (
"341 587 OFFCURVE",
"308 587 OFFCURVE",
"280 574 CURVE SMOOTH",
"258 565 OFFCURVE",
"238 545 OFFCURVE",
"225 520 CURVE",
"227 516 OFFCURVE",
"230 514 OFFCURVE",
"235 514 CURVE",
"278 541 OFFCURVE",
"301 550 OFFCURVE",
"357 555 CURVE",
"371 568 OFFCURVE",
"375 577 OFFCURVE",
"373 599 CURVE"
);
},
{
closed = 1;
nodes = (
"353 622 OFFCURVE",
"358 624 OFFCURVE",
"359 629 CURVE",
"353 660 OFFCURVE",
"334 678 OFFCURVE",
"305 678 CURVE SMOOTH",
"273 678 OFFCURVE",
"249 643 OFFCURVE",
"249 613 CURVE SMOOTH",
"249 581 OFFCURVE",
"280 548 OFFCURVE",
"332 552 CURVE",
"373 599 LINE",
"322 580 OFFCURVE",
"267 580 OFFCURVE",
"267 612 CURVE SMOOTH",
"267 628 OFFCURVE",
"286 640 OFFCURVE",
"307 640 CURVE SMOOTH",
"325 640 OFFCURVE",
"340 635 OFFCURVE",
"345 622 CURVE"
);
}
);
width = 600;
}
);
unicode = 0654;
},
{
glyphname = "hamzabelow-ar";
lastChange = "2020-03-30 10:47:35 +0000";
layers = (
{
layerId = "5737A387-D58B-44AF-B5D8-46C6A64E18DE";
paths = (
{
closed = 1;
nodes = (
"536 -127 OFFCURVE",
"503 -127 OFFCURVE",
"475 -140 CURVE SMOOTH",
"453 -149 OFFCURVE",
"433 -169 OFFCURVE",
"420 -194 CURVE",
"422 -198 OFFCURVE",
"425 -200 OFFCURVE",
"430 -200 CURVE",
"473 -173 OFFCURVE",
"496 -164 OFFCURVE",
"552 -159 CURVE",
"566 -146 OFFCURVE",
"570 -137 OFFCURVE",
"568 -115 CURVE"
);
},
{
closed = 1;
nodes = (
"548 -92 OFFCURVE",
"553 -90 OFFCURVE",
"554 -85 CURVE",
"548 -54 OFFCURVE",
"529 -36 OFFCURVE",
"500 -36 CURVE SMOOTH",
"468 -36 OFFCURVE",
"444 -71 OFFCURVE",
"444 -101 CURVE SMOOTH",
"444 -133 OFFCURVE",
"475 -166 OFFCURVE",
"527 -162 CURVE",
"568 -115 LINE",
"517 -134 OFFCURVE",
"462 -134 OFFCURVE",
"462 -102 CURVE SMOOTH",
"462 -86 OFFCURVE",
"481 -74 OFFCURVE",
"502 -74 CURVE SMOOTH",
"520 -74 OFFCURVE",
"535 -79 OFFCURVE",
"540 -92 CURVE"
);
}
);
width = 600;
}
);
unicode = 0655;
},
{
export = 0;
glyphname = _cap.joint;
lastChange = "2020-03-20 22:43:17 +0000";
layers = (
{
anchors = (
{
name = left;
position = "{110, 0}";
},
{
name = origin;
position = "{33, 1}";
}
);
layerId = "5737A387-D58B-44AF-B5D8-46C6A64E18DE";
paths = (
{
closed = 0;
nodes = (
"33 1 LINE",
"33 -25 OFFCURVE",
"51 -45 OFFCURVE",
"72 -45 CURVE SMOOTH",
"93 -45 OFFCURVE",
"111 -25 OFFCURVE",
"111 1 CURVE"
);
}
);
width = 200;
}
);
},
{
glyphname = dotcomponent;
lastChange = "2020-03-24 14:34:41 +0000";
layers = (
{
layerId = "5737A387-D58B-44AF-B5D8-46C6A64E18DE";
paths = (
{
closed = 1;
nodes = (
"43 380 OFFCURVE",
"53 372 OFFCURVE",
"77 357 CURVE",
"134 404 LINE",
"121 428 OFFCURVE",
"107 443 OFFCURVE",
"87 453 CURVE",
"30 406 LINE"
);
}
